<svg width="644" height="32" viewBox="0 0 644 32" fill="none" xmlns="http://www.w3.org/2000/svg">
  <g clip-path="url(#a)">
    <path d="M0 12.444C0 8.088 0 5.91.848 4.248a7.778 7.778 0 0 1 3.399-3.4C5.91 0 8.088 0 12.444 0h619.111c4.356 0 6.534 0 8.198.848a7.772 7.772 0 0 1 3.399 3.399C644 5.91 644 8.088 644 12.444v18.667H0V12.444Z" fill="#25334D"/>
    <g clip-path="url(#b)" fill="#B7B7B7">
      <path d="M566.229 16.624a.601.601 0 0 0 .599-.593V9.54l-.045-.954.393.47.903.962a.531.531 0 0 0 .399.174c.297 0 .542-.213.542-.516a.52.52 0 0 0-.174-.387l-2.16-2.084a.616.616 0 0 0-.457-.206c-.162 0-.303.052-.458.206l-2.166 2.084a.52.52 0 0 0-.174.387c0 .303.239.516.535.516a.546.546 0 0 0 .406-.174l.903-.961.399-.478-.051.961v6.49c0 .322.27.593.606.593Zm-3.72 5.154h7.426c1.399 0 2.121-.723 2.121-2.103v-6.34c0-1.381-.722-2.104-2.121-2.104h-1.74v1.284h1.656c.587 0 .922.31.922.929v6.115c0 .62-.335.929-.922.929h-7.258c-.593 0-.921-.31-.921-.93v-6.114c0-.62.328-.929.921-.929h1.676v-1.284h-1.76c-1.392 0-2.12.716-2.12 2.103v6.341c0 1.38.728 2.103 2.12 2.103Zm30.935-1.556c.41 0 .742-.332.742-.71v-4.005h3.968a.738.738 0 0 0 .735-.73.742.742 0 0 0-.735-.728h-3.968v-4.005c0-.384-.332-.71-.742-.71-.403 0-.741.326-.741.71v4.005h-3.968a.75.75 0 0 0-.735.729c0 .403.351.73.735.73h3.968v4.004c0 .378.338.71.741.71Zm23.9-1.528h1.096v.974c0 1.38.729 2.102 2.122 2.102h6.539c1.392 0 2.121-.723 2.121-2.102v-6.585c0-1.38-.729-2.102-2.121-2.102h-1.097v-.967c0-1.38-.728-2.102-2.121-2.102h-6.539c-1.4 0-2.122.722-2.122 2.102v6.578c0 1.386.722 2.102 2.122 2.102Zm.084-1.284c-.594 0-.923-.31-.923-.935V10.13c0-.626.329-.929.923-.929h6.371c.587 0 .922.303.922.929v.851h-4.159c-1.393 0-2.122.722-2.122 2.102v4.327h-1.012Zm3.217 3.07c-.593 0-.915-.31-.915-.929V13.2c0-.62.322-.93.915-.93h6.372c.593 0 .922.31.922.93v6.351c0 .62-.329.929-.922.929h-6.372Z"/>
    </g>
    <g clip-path="url(#c)">
      <path d="M78.346 21.4h11.047c1.4 0 2.13-.723 2.13-2.105v-7.857c0-1.382-.73-2.105-2.13-2.105H78.346c-1.394 0-2.124.717-2.124 2.105v7.857c0 1.382.73 2.105 2.124 2.105Zm.084-1.285c-.594 0-.923-.31-.923-.936v-7.625c0-.626.33-.936.923-.936h2.944v9.497H78.43Zm10.879-9.497c.594 0 .923.31.923.936v7.625c0 .626-.33.936-.923.936h-6.715v-9.497h6.715Zm-9.2 2.363c.232 0 .426-.2.426-.42a.427.427 0 0 0-.426-.413h-1.324a.427.427 0 0 0-.426.414c0 .219.194.42.426.42h1.324Zm0 1.737a.429.429 0 0 0 .426-.42.428.428 0 0 0-.426-.413h-1.324a.428.428 0 0 0-.426.413c0 .226.194.42.426.42h1.324Zm0 1.73a.423.423 0 0 0 .426-.413.422.422 0 0 0-.426-.407h-1.324a.422.422 0 0 0-.426.407c0 .226.194.413.426.413h1.324Zm36.09 3.847-4.728-4.624a.768.768 0 0 1-.249-.559c0-.213.085-.407.255-.565l4.728-4.618a.689.689 0 0 1 .498-.207c.407 0 .723.316.723.717a.74.74 0 0 1-.219.523l-4.253 4.144 4.253 4.156a.73.73 0 0 1 .219.523.712.712 0 0 1-.723.717.713.713 0 0 1-.504-.207Z" fill="#B7B7B7"/>
      <path d="M139.556 20.502a.703.703 0 0 0 .505-.207l4.727-4.618c.164-.17.249-.346.249-.565a.736.736 0 0 0-.249-.559l-4.727-4.624a.703.703 0 0 0-.505-.207.712.712 0 0 0-.723.717c0 .195.085.383.219.523l4.26 4.156-4.26 4.144a.74.74 0 0 0-.219.523c0 .4.316.717.723.717Z" fill="#5A5A5A"/>
    </g>
    <g clip-path="url(#d)">
      <circle cx="20.222" cy="15.556" r="4.667" fill="#ED6A5E"/>
      <circle cx="20.222" cy="15.556" r="4.278" stroke="#000" stroke-opacity=".1" stroke-width=".778"/>
      <circle cx="35.778" cy="15.556" r="4.667" fill="#F4BD50"/>
      <circle cx="35.778" cy="15.556" r="4.278" stroke="#000" stroke-opacity=".1" stroke-width=".778"/>
      <circle cx="51.333" cy="15.556" r="4.667" fill="#61C454"/>
      <circle cx="51.333" cy="15.556" r="4.278" stroke="#000" stroke-opacity=".1" stroke-width=".778"/>
    </g>
    <path d="M220.889 21.778a.979.979 0 0 0 .45-.13c3.707-2.034 4.994-2.976 4.994-5.341V11.4c0-.78-.302-1.059-.946-1.338-.714-.305-3.115-1.15-3.816-1.39a2.241 2.241 0 0 0-.682-.117c-.219 0-.47.058-.682.117-.702.2-3.102 1.091-3.817 1.39-.643.273-.946.559-.946 1.338v4.906c0 2.365 1.294 3.294 4.988 5.34.167.092.341.13.457.13Zm.347-11.91c.843.338 2.678.994 3.643 1.338.18.072.225.17.225.403v4.458c0 1.903-.946 2.417-3.848 4.184-.181.11-.271.15-.361.15V9.796c.09 0 .187.019.341.071Z" fill="#B7B7B7"/>
    <g clip-path="url(#e)">
      <path d="M234.111 12.133c0-2.613 0-3.92.509-4.918a4.664 4.664 0 0 1 2.039-2.04c.998-.508 2.305-.508 4.919-.508h160.844c2.614 0 3.921 0 4.919.508a4.664 4.664 0 0 1 2.039 2.04c.509.998.509 2.305.509 4.918v6.845c0 2.613 0 3.92-.509 4.918a4.665 4.665 0 0 1-2.039 2.04c-.998.508-2.305.508-4.919.508H241.578c-2.614 0-3.921 0-4.919-.508a4.665 4.665 0 0 1-2.039-2.04c-.509-.998-.509-2.305-.509-4.918v-6.845Z" fill="#3C5175"/>
      
      <g clip-path="url(#f)">
        <path d="M400.423 15.347a.414.414 0 0 0 .319-.127l1.869-1.882a.457.457 0 0 0 0-.67l-1.869-1.9a.406.406 0 0 0-.319-.137.448.448 0 0 0-.442.455c0 .123.046.224.123.31l1.09 1.067a4.445 4.445 0 0 0-.652-.05 4.045 4.045 0 0 0-4.061 4.065 4.068 4.068 0 0 0 4.075 4.078 4.065 4.065 0 0 0 4.074-4.078.45.45 0 0 0-.465-.47c-.264 0-.442.196-.442.47a3.158 3.158 0 0 1-3.167 3.171 3.162 3.162 0 0 1-3.168-3.171c0-1.773 1.399-3.177 3.154-3.177.296 0 .57.023.811.064l-1.244 1.23a.416.416 0 0 0-.128.306c0 .25.196.446.442.446Z" fill="#E3E3E3"/>
      </g>
      <path d="M248 10.167a2.92 2.92 0 0 0-2.917 2.916v1.75h-.583c-.643 0-1.167.524-1.167 1.167v4.667c0 .643.524 1.166 1.167 1.166h7c.643 0 1.167-.523 1.167-1.166V16c0-.643-.524-1.167-1.167-1.167h-.583v-1.75A2.92 2.92 0 0 0 248 10.167ZM251.5 16l.001 4.667H244.5V16h7Zm-5.25-1.167v-1.75c0-.965.785-1.75 1.75-1.75s1.75.785 1.75 1.75v1.75h-3.5Z" fill="#fff"/>
    </g>
  </g>
  <defs>
    <clipPath id="a">
      <path fill="#fff" d="M0 0h644v31.111H0z"/>
    </clipPath>
    <clipPath id="b">
      <path fill="#fff" d="M556.889 5.444h74.667v18.667h-74.667z"/>
    </clipPath>
    <clipPath id="c">
      <path fill="#fff" d="M74.667 5.444h76.222v18.667H74.667z"/>
    </clipPath>
    <clipPath id="d">
      <path fill="#fff" d="M15.556 10.889H56v9.333H15.556z"/>
    </clipPath>
    <clipPath id="e">
      <path fill="#fff" d="M234.111 4.667h175.778v21.778H234.111z"/>
    </clipPath>
    <clipPath id="f">
      <path fill="#fff" d="M395.5 10.111h10.111V21H395.5z"/>
    </clipPath>
  </defs>
</svg>
