<!DOCTYPE svg PUBLIC "-//W3C//DTD SVG 1.1//EN" "http://www.w3.org/Graphics/SVG/1.1/DTD/svg11.dtd">
<!-- Uploaded to: SVG Repo, www.svgrepo.com, Transformed by: SVG Repo Mixer Tools -->
<svg width="800px" height="800px" viewBox="-2 -2 24.00 24.00" version="1.1" xmlns="http://www.w3.org/2000/svg" fill="#000000">
<g id="SVGRepo_bgCarrier" stroke-width="0">
<rect x="-2" y="-2" width="24.00" height="24.00" rx="1.2" fill="#dd8d8d" strokewidth="0"/>
</g>
<g id="SVGRepo_tracerCarrier" stroke-linecap="round" stroke-linejoin="round"/>
<g id="SVGRepo_iconCarrier"> <g id="layer1"> <path d="M 14 0 L 14 1 L 18 1 L 18 3 L 14 3 L 14 7 L 19 7 L 19 6 L 15 6 L 15 4 L 19 4 L 19 0 L 14 0 z M 2 15 L 2 16 L 3 16 L 3 15 L 2 15 z M 5 15 L 5 16 L 6 16 L 6 15 L 5 15 z M 8 15 L 8 16 L 9 16 L 9 15 L 8 15 z " style="fill:#222222; fill-opacity:1; stroke:none; stroke-width:0px;"/> </g> </g>
</svg>