<?xml version="1.0" encoding="UTF-8"?>
<svg version="1.1" xmlns="http://www.w3.org/2000/svg" width="800" height="800">
<path d="M0 0 C7.59 0 15.18 0 23 0 C28.62794777 14.25591728 33.92372062 28.62138148 39.15777588 43.02575684 C41.43365064 49.28889746 43.71621274 55.54960212 45.99865341 61.81035233 C46.52122598 63.24377989 47.04374014 64.67722875 47.56619644 66.1106987 C52.61699736 79.96781671 57.69907563 93.81323912 62.79943848 107.65219116 C64.11341564 111.21855799 65.42548023 114.78562407 66.73730469 118.3527832 C70.52328524 128.63863406 74.3317687 138.91402476 78.234375 149.15625 C78.86462018 150.81860923 79.49467367 152.48104116 80.12451172 154.14355469 C81.24768664 157.10811999 82.38633912 160.06599031 83.53564453 163.02050781 C84.02178543 164.2998923 84.50734257 165.57949882 84.9921875 166.859375 C85.40839355 167.93670898 85.82459961 169.01404297 86.25341797 170.12402344 C87 173 87 173 86 178 C78.74 178 71.48 178 64 178 C59.50036559 169.00073117 59.50036559 169.00073117 57.99560547 164.82055664 C57.65287598 163.87623276 57.31014648 162.93190887 56.95703125 161.95896912 C56.59738281 160.95286087 56.23773438 159.94675262 55.8671875 158.91015625 C55.47805176 157.83439835 55.08891602 156.75864044 54.68798828 155.65028381 C53.85024602 153.33282341 53.01468325 151.01457419 52.18109131 148.69561768 C50.17158784 143.10583807 48.14881867 137.52085973 46.12765884 131.93528748 C45.4346562 130.01948206 44.74226619 128.10345618 44.05001831 126.18737793 C39.70037489 114.15108093 35.29483365 102.13566598 30.875 90.125 C30.14340926 88.13503331 29.41188257 86.14504307 28.68041992 84.1550293 C25.22556737 74.75782844 21.76552926 65.36254943 18.30102539 55.96890259 C16.65723429 51.51078929 15.01518373 47.05203591 13.37335205 42.59320068 C12.22509075 39.47701491 11.07426173 36.36178591 9.92333984 33.24658203 C6.85665794 24.93098991 3.80109542 16.61063093 0.92578125 8.2265625 C0.52399658 7.05947754 0.12221191 5.89239258 -0.29174805 4.68994141 C-1 2 -1 2 0 0 Z " fill="#0071F9" transform="translate(100,311)"/>
<path d="M0 0 C20.13 0 40.26 0 61 0 C61 5.28 61 10.56 61 16 C47.8 16 34.6 16 21 16 C21.33 20.95 21.66 25.9 22 31 C33.88 31 45.76 31 58 31 C58 36.61 58 42.22 58 48 C45.79 48 33.58 48 21 48 C21 58.23 21 68.46 21 79 C14.07 79 7.14 79 0 79 C0 52.93 0 26.86 0 0 Z " fill="#0071F9" transform="translate(272,361)"/>
<path d="M0 0 C7.0302536 5.32791863 11.39788801 11.87543166 13.11328125 20.6015625 C13.11328125 24.2315625 13.11328125 27.8615625 13.11328125 31.6015625 C-0.41671875 31.6015625 -13.94671875 31.6015625 -27.88671875 31.6015625 C-24.89013182 39.95724448 -24.89013182 39.95724448 -21.63671875 42.6640625 C-16.59399417 44.38317315 -12.56372514 44.18206471 -7.63671875 42.4765625 C-4.40749868 40.27482154 -2.82856438 37.96244916 -0.88671875 34.6015625 C4.08562345 36.09326516 8.53173864 38.20613667 13.11328125 40.6015625 C9.37523139 48.70969964 3.24860899 54.09780767 -4.88671875 57.6015625 C-13.30522443 60.41373999 -23.97370258 59.48784127 -31.875 55.7265625 C-38.55251258 51.99234187 -42.17726128 46.83649024 -45.0078125 39.82421875 C-47.67604645 30.04069428 -46.86416501 18.48785074 -41.88671875 9.6015625 C-32.81912879 -3.93714325 -14.35224925 -8.63547098 0 0 Z M-25.88671875 14.6015625 C-26.21671875 16.2515625 -26.54671875 17.9015625 -26.88671875 19.6015625 C-19.62671875 19.6015625 -12.36671875 19.6015625 -4.88671875 19.6015625 C-7.14489842 13.03544509 -7.14489842 13.03544509 -11.88671875 9.6015625 C-18.52289705 8.74528143 -21.36997958 9.64416585 -25.88671875 14.6015625 Z " fill="#0071FA" transform="translate(483.88671875,383.3984375)"/>
<path d="M0 0 C4.26021021 3.38028949 6.59988978 6.44727254 7.25112915 12.02619934 C7.26445282 12.85004623 7.27777649 13.67389313 7.29150391 14.52270508 C7.3113736 15.46330276 7.33124329 16.40390045 7.35171509 17.3730011 C7.3632663 18.3752623 7.3748175 19.3775235 7.38671875 20.41015625 C7.4060849 21.44629562 7.42545105 22.482435 7.44540405 23.54997253 C7.50505982 26.85094029 7.55152956 30.15194319 7.59765625 33.453125 C7.63584888 35.69467645 7.67490136 37.93621342 7.71484375 40.17773438 C7.81075002 45.66524667 7.8948331 51.15282766 7.97265625 56.640625 C2.03265625 56.310625 -3.90734375 55.980625 -10.02734375 55.640625 C-10.02734375 54.320625 -10.02734375 53.000625 -10.02734375 51.640625 C-10.5584375 51.98996094 -11.08953125 52.33929688 -11.63671875 52.69921875 C-12.69632813 53.38177734 -12.69632813 53.38177734 -13.77734375 54.078125 C-14.4734375 54.53058594 -15.16953125 54.98304688 -15.88671875 55.44921875 C-20.89450385 58.23639841 -26.62619283 58.43610597 -32.1484375 57.14453125 C-38.04639804 55.17111156 -41.45249399 52.08435738 -44.83984375 46.828125 C-46.87195076 41.37352198 -46.79836919 36.82419075 -44.58984375 31.515625 C-40.74627964 24.75625364 -34.60799311 21.91999587 -27.33129883 19.85449219 C-22.26768079 18.51611282 -17.20226546 17.44349304 -12.02734375 16.640625 C-12.52234375 13.175625 -12.52234375 13.175625 -13.02734375 9.640625 C-18.0774397 8.70276418 -18.0774397 8.70276418 -23.02734375 9.640625 C-23.68734375 11.290625 -24.34734375 12.940625 -25.02734375 14.640625 C-31.29734375 14.640625 -37.56734375 14.640625 -44.02734375 14.640625 C-41.65969669 3.98621324 -41.65969669 3.98621324 -38.02734375 0.640625 C-26.97570107 -6.06767663 -11.07620499 -7.42681953 0 0 Z M-19.52734375 31.015625 C-20.69265625 31.45648438 -21.85796875 31.89734375 -23.05859375 32.3515625 C-26.07831582 33.44694892 -26.07831582 33.44694892 -28.02734375 35.640625 C-27.86317343 39.20655119 -27.86317343 39.20655119 -27.02734375 42.640625 C-24.20733048 44.05063164 -22.1572712 43.88610951 -19.02734375 43.640625 C-16.08814033 42.54696791 -14.53682519 41.60048804 -13.05078125 38.80078125 C-11.59173647 35.13953337 -11.02734375 32.6600947 -11.02734375 28.640625 C-14.12247315 28.640625 -16.65040889 29.91449728 -19.52734375 31.015625 Z " fill="#0071F9" transform="translate(644.02734375,384.359375)"/>
<path d="M0 0 C3.47710995 1.82491948 5.5142964 3.95097039 7.5625 7.3125 C8.12491551 11.1956704 8.02732022 15.04062737 7.953125 18.95703125 C7.94746521 20.0819548 7.94180542 21.20687836 7.93597412 22.3658905 C7.91361468 25.95269634 7.86341667 29.53849696 7.8125 33.125 C7.79243455 35.55923035 7.77418386 37.99347638 7.7578125 40.42773438 C7.7137509 46.38970921 7.64472413 52.35093427 7.5625 58.3125 C1.9525 58.3125 -3.6575 58.3125 -9.4375 58.3125 C-9.45208252 57.08619873 -9.46666504 55.85989746 -9.48168945 54.59643555 C-9.53962083 50.05072734 -9.61685381 45.50551719 -9.69995117 40.96020508 C-9.73322486 38.99218829 -9.76124915 37.02407551 -9.78393555 35.0559082 C-9.81743678 32.22826188 -9.86974963 29.40149718 -9.92578125 26.57421875 C-9.93217117 25.69287766 -9.9385611 24.81153656 -9.94514465 23.90348816 C-9.96493881 23.08286392 -9.98473297 22.26223969 -10.00512695 21.41674805 C-10.02178154 20.33419991 -10.02178154 20.33419991 -10.03877258 19.2297821 C-10.55081764 16.76761177 -11.49548987 15.86309291 -13.4375 14.3125 C-15.37695442 13.76794071 -15.37695442 13.76794071 -17.4375 13.8125 C-18.4584375 13.76609375 -18.4584375 13.76609375 -19.5 13.71875 C-21.62941859 14.17317636 -21.62941859 14.17317636 -23.02661133 16.28588867 C-24.9291578 20.36719488 -24.91482964 23.87984733 -24.94921875 28.33203125 C-24.96716995 29.19060226 -24.98512115 30.04917328 -25.00361633 30.9337616 C-25.05760741 33.6641251 -25.09157874 36.39431492 -25.125 39.125 C-25.158183 40.9811439 -25.19267358 42.83726492 -25.22851562 44.69335938 C-25.31577923 49.23309636 -25.37594179 53.77205108 -25.4375 58.3125 C-31.3775 58.3125 -37.3175 58.3125 -43.4375 58.3125 C-43.4375 39.1725 -43.4375 20.0325 -43.4375 0.3125 C-37.4975 0.3125 -31.5575 0.3125 -25.4375 0.3125 C-25.1075 0.9725 -24.7775 1.6325 -24.4375 2.3125 C-23.91542969 2.02375 -23.39335938 1.735 -22.85546875 1.4375 C-15.38421573 -2.33083777 -7.83291037 -3.56703167 0 0 Z " fill="#0071FB" transform="translate(712.4375,381.6875)"/>
<path d="M0 0 C7.59 0 15.18 0 23 0 C29.95455659 18.00847337 36.66786548 36.10624197 43.30627441 54.23336792 C44.226554 56.74556429 45.15065639 59.25630362 46.07800293 61.76589966 C47.39714443 65.34109369 48.70570994 68.91999118 50.01171875 72.5 C50.41434433 73.58538559 50.81696991 74.67077118 51.23179626 75.78904724 C51.5970491 76.79709915 51.96230194 77.80515106 52.33862305 78.84375 C52.66074265 79.72224609 52.98286224 80.60074219 53.31474304 81.50585938 C54.03180379 84.11575677 54.12841066 86.30686703 54 89 C50.35133622 90.82433189 46.07993877 90.27044726 42.0625 90.3125 C40.68288086 90.35600586 40.68288086 90.35600586 39.27539062 90.40039062 C38.39173828 90.40876953 37.50808594 90.41714844 36.59765625 90.42578125 C35.78820557 90.44036377 34.97875488 90.45494629 34.14477539 90.4699707 C31.16647302 89.81735465 30.64492244 88.5221561 29 86 C28.26553588 84.33443895 27.59745974 82.63870937 26.98217773 80.92553711 C26.43031044 79.40499977 26.43031044 79.40499977 25.86729431 77.85374451 C25.47667313 76.75603226 25.08605194 75.65832001 24.68359375 74.52734375 C24.26763443 73.37625626 23.85167511 72.22516876 23.42311096 71.03919983 C22.08812651 67.34091925 20.76250766 63.63936534 19.4375 59.9375 C18.14112531 56.33403016 16.84279142 52.73127335 15.54360962 49.1288147 C14.67844315 46.72740138 13.81546715 44.32519776 12.9546814 41.92221069 C10.71928011 35.6957229 8.44031582 29.49000664 6.08251953 23.30908203 C5.60874878 22.0597517 5.13511883 20.81036796 4.66163635 19.56092834 C3.76267074 17.19705407 2.85479602 14.83654337 1.93687439 12.47996521 C1.53626297 11.42382523 1.13565155 10.36768524 0.72290039 9.27954102 C0.3651503 8.35351578 0.00740021 7.42749054 -0.3611908 6.47340393 C-1 4 -1 4 0 0 Z " fill="#0071F9" transform="translate(136,311)"/>
<path d="M0 0 C0.92425781 -0.02900391 1.84851563 -0.05800781 2.80078125 -0.08789062 C4.13302734 -0.10045898 4.13302734 -0.10045898 5.4921875 -0.11328125 C6.30800293 -0.12786377 7.12381836 -0.14244629 7.96435547 -0.1574707 C10.95078386 0.49211965 11.47385656 1.79009231 13.125 4.3125 C14.13305664 6.56576538 14.13305664 6.56576538 15.03515625 9.06396484 C15.38016174 10.00887787 15.72516724 10.95379089 16.08062744 11.92733765 C16.62852936 13.45990707 16.62852936 13.45990707 17.1875 15.0234375 C17.57580994 16.09212067 17.96411987 17.16080383 18.36419678 18.26187134 C19.62443018 21.73472035 20.8750379 25.21094226 22.125 28.6875 C23.41103973 32.24636129 24.69875485 35.80461357 25.98651123 39.362854 C26.83801961 41.71649841 27.68864891 44.07046103 28.53839111 46.42474365 C30.93661162 53.06250534 33.36889173 59.68538654 35.859375 66.2890625 C36.38547677 67.69089541 36.9115215 69.09274974 37.4375 70.49462891 C38.36978582 72.97779025 39.31411903 75.45516544 40.265625 77.93115234 C40.6678125 79.00574707 41.07 80.0803418 41.484375 81.1875 C41.82952148 82.09242188 42.17466797 82.99734375 42.53027344 83.9296875 C43.125 86.3125 43.125 86.3125 42.125 90.3125 C34.535 90.3125 26.945 90.3125 19.125 90.3125 C18.06023437 87.43273437 16.99546875 84.55296875 15.8984375 81.5859375 C15.53096405 80.59230698 15.1634906 79.59867645 14.78488159 78.57493591 C12.91797448 73.52624654 11.0532303 68.47677163 9.19189453 63.42602539 C5.77955513 54.17092635 2.3644617 44.91761026 -1.12734985 35.69213867 C-2.44794845 32.20166908 -3.75984307 28.70795963 -5.07098389 25.21392822 C-5.68827006 23.57676735 -6.31003023 21.94128612 -6.93634033 20.30755615 C-7.8047917 18.04114685 -8.65786824 15.76949537 -9.5078125 13.49609375 C-9.76526245 12.83666275 -10.0227124 12.17723175 -10.28796387 11.49781799 C-11.67714734 7.72795939 -12.16892068 5.16180287 -10.875 1.3125 C-8.56346947 -0.99903053 -3.10207644 0.03217922 0 0 Z " fill="#0071F9" transform="translate(108.875,398.6875)"/>
<path d="M0 0 C6.6 0.33 13.2 0.66 20 1 C22.97 12.88 25.94 24.76 29 37 C30.84203022 28.9394246 30.84203022 28.9394246 32.67895508 20.87768555 C34.28905856 13.86651163 36.05990735 6.92723773 38 0 C44.27 0 50.54 0 57 0 C51.03861883 19.79725152 44.60305619 39.40931492 38 59 C31.73 59 25.46 59 19 59 C18.21496094 56.64488281 17.42992187 54.28976562 16.62109375 51.86328125 C16.35290833 51.05881561 16.0847229 50.25434998 15.80841064 49.42550659 C14.46641409 45.39991428 13.12489863 41.37416254 11.78417969 37.34814453 C9.41340722 30.23030452 7.04184884 23.11286267 4.64453125 16.00390625 C4.31718994 15.03090576 3.98984863 14.05790527 3.65258789 13.05541992 C3.06439397 11.30865741 2.47385118 9.56268354 1.88061523 7.81762695 C0 2.22340683 0 2.22340683 0 0 Z " fill="#0070F6" transform="translate(376,381)"/>
<path d="M0 0 C5.94 0 11.88 0 18 0 C18 5.94 18 11.88 18 18 C21.63 18 25.26 18 29 18 C29 21.63 29 25.26 29 29 C25.37 29 21.74 29 18 29 C18.1179762 33.25435079 18.2422037 37.50845821 18.37231445 41.76245117 C18.4157163 43.2106424 18.45738744 44.65888654 18.49731445 46.10717773 C18.55489062 48.18489559 18.61862028 50.26234573 18.68359375 52.33984375 C18.72025146 53.59144287 18.75690918 54.84304199 18.79467773 56.13256836 C18.67803906 58.89630504 18.67803906 58.89630504 20 60 C23.00331018 60.14193337 25.99217134 60.04236378 29 60 C28.67 64.95 28.34 69.9 28 75 C19.95376651 77.01155837 12.43031199 76.78033417 5 73 C0.07069247 67.94429997 -0.14290659 63.60011342 -0.09765625 56.83203125 C-0.0962413 56.03721848 -0.09482635 55.2424057 -0.09336853 54.42350769 C-0.08777378 51.88646675 -0.07522228 49.34951425 -0.0625 46.8125 C-0.05748432 45.09179815 -0.05292153 43.37109492 -0.04882812 41.65039062 C-0.03780607 37.4335597 -0.02054506 33.21679484 0 29 C-2.64 29 -5.28 29 -8 29 C-8 25.37 -8 21.74 -8 18 C-5.36 18 -2.72 18 0 18 C0 12.06 0 6.12 0 0 Z " fill="#0071F9" transform="translate(513,365)"/>
<path d="M0 0 C5.94 0 11.88 0 18 0 C18.33 1.32 18.66 2.64 19 4 C19.66386719 3.71125 20.32773437 3.4225 21.01171875 3.125 C21.89472656 2.75375 22.77773438 2.3825 23.6875 2 C24.55761719 1.62875 25.42773438 1.2575 26.32421875 0.875 C29 0 29 0 34 0 C34 5.28 34 10.56 34 16 C32.06125 16.474375 30.1225 16.94875 28.125 17.4375 C23.94986258 18.41102307 23.94986258 18.41102307 20 20 C18.75526468 23.73420597 18.76790215 27.27365238 18.68359375 31.16796875 C18.66281265 31.96278152 18.64203156 32.7575943 18.62062073 33.57649231 C18.55527913 36.11340763 18.49631192 38.65042573 18.4375 41.1875 C18.39430014 42.90821372 18.35068537 44.62891708 18.30664062 46.34960938 C18.19883323 50.56630247 18.0996458 54.78307451 18 59 C12.06 59 6.12 59 0 59 C0 39.53 0 20.06 0 0 Z " fill="#0070F7" transform="translate(555,381)"/>
<path d="M0 0 C0.94101563 0.00322266 1.88203125 0.00644531 2.8515625 0.00976562 C3.83640625 0.01814453 4.82125 0.02652344 5.8359375 0.03515625 C6.82851562 0.03966797 7.82109375 0.04417969 8.84375 0.04882812 C11.2995391 0.0606348 13.75520854 0.07710225 16.2109375 0.09765625 C18.89349077 5.29987669 21.24748356 10.46467879 23.26171875 15.95703125 C23.65631538 17.02452606 23.65631538 17.02452606 24.05888367 18.11358643 C24.60665386 19.60164793 25.15186549 21.09065363 25.69458008 22.58056641 C26.52799143 24.86011216 27.37796177 27.13305375 28.22851562 29.40625 C28.76143836 30.86030303 29.29337518 32.31471787 29.82421875 33.76953125 C30.20686638 34.78367096 30.20686638 34.78367096 30.59724426 35.81829834 C31.96024454 39.62152875 32.22627671 41.0362994 31.2109375 45.09765625 C23.6209375 45.09765625 16.0309375 45.09765625 8.2109375 45.09765625 C7.29570313 42.6175 6.38046875 40.13734375 5.4375 37.58203125 C4.54774792 35.17574099 3.65721274 32.76974193 2.76660156 30.36376953 C2.14891982 28.69382512 1.53205032 27.02358004 0.91601562 25.35302734 C0.02948889 22.94939598 -0.85997049 20.54686743 -1.75 18.14453125 C-2.02403656 17.39959412 -2.29807312 16.65465698 -2.58041382 15.887146 C-3.6089219 13.11767227 -4.63392717 10.40356953 -5.97119141 7.76660156 C-7.08117862 5.50156496 -6.92703366 3.58113718 -6.7890625 1.09765625 C-4.33631109 -0.12871945 -2.7384844 -0.01649689 0 0 Z " fill="#0071FB" transform="translate(86.7890625,443.90234375)"/>
<path d="M0 0 C0.91644287 0.00523682 1.83288574 0.01047363 2.77709961 0.01586914 C3.76645508 0.0190918 4.75581055 0.02231445 5.77514648 0.02563477 C6.81606445 0.03401367 7.85698242 0.04239258 8.92944336 0.05102539 C10.49662109 0.05779297 10.49662109 0.05779297 12.09545898 0.06469727 C14.68600996 0.07652627 17.27644895 0.0930085 19.86694336 0.11352539 C23.50859841 8.68587355 26.9203774 17.3263851 30.17944336 26.05102539 C30.63383789 27.24276367 31.08823242 28.43450195 31.55639648 29.66235352 C31.98500977 30.81026367 32.41362305 31.95817383 32.85522461 33.14086914 C33.24234619 34.16946045 33.62946777 35.19805176 34.02832031 36.2578125 C34.85215066 39.0631527 35.11652076 41.21085288 34.86694336 44.11352539 C33.86694336 45.11352539 33.86694336 45.11352539 31.73388672 45.22705078 C30.35922241 45.21919556 30.35922241 45.21919556 28.95678711 45.21118164 C27.96743164 45.20795898 26.97807617 45.20473633 25.95874023 45.20141602 C24.91782227 45.19303711 23.8769043 45.1846582 22.80444336 45.17602539 C21.7596582 45.17151367 20.71487305 45.16700195 19.63842773 45.16235352 C17.04787676 45.15052452 14.45743777 45.13404228 11.86694336 45.11352539 C8.12294873 35.9517503 4.52395008 26.73392853 0.99194336 17.48852539 C0.58661377 16.44567383 0.18128418 15.40282227 -0.23632812 14.32836914 C-0.61217041 13.33708008 -0.9880127 12.34579102 -1.37524414 11.32446289 C-1.71410645 10.44064941 -2.05296875 9.55683594 -2.40209961 8.64624023 C-3.16872499 5.98993705 -3.34494811 3.86331238 -3.13305664 1.11352539 C-2.13305664 0.11352539 -2.13305664 0.11352539 0 0 Z " fill="#0071F9" transform="translate(174.133056640625,310.886474609375)"/>
<path d="M0 0 C5.94 0 11.88 0 18 0 C18 19.47 18 38.94 18 59 C12.06 59 6.12 59 0 59 C0 39.53 0 20.06 0 0 Z " fill="#006FF5" transform="translate(348,381)"/>
<path d="M0 0 C5.94 0 11.88 0 18 0 C18 4.95 18 9.9 18 15 C12.06 15 6.12 15 0 15 C0 10.05 0 5.1 0 0 Z " fill="#006FF5" transform="translate(348,361)"/>
</svg>
