<!DOCTYPE svg PUBLIC "-//W3C//DTD SVG 1.1//EN" "http://www.w3.org/Graphics/SVG/1.1/DTD/svg11.dtd">
<!-- Uploaded to: SVG Repo, www.svgrepo.com, Transformed by: SVG Repo Mixer Tools -->
<svg width="800px" height="800px" viewBox="-4.8 -4.8 57.60 57.60" fill="none" xmlns="http://www.w3.org/2000/svg">
<g id="SVGRepo_bgCarrier" stroke-width="0">
<rect x="-4.8" y="-4.8" width="57.60" height="57.60" rx="2.88" fill="#000000" strokewidth="0"/>
</g>
<g id="SVGRepo_tracerCarrier" stroke-linecap="round" stroke-linejoin="round"/>
<g id="SVGRepo_iconCarrier"> <rect width="48" height="48" fill="white" fill-opacity="0.01"/> <path d="M20 15L24 19L28 15" stroke="#ff0000" stroke-width="4" stroke-linecap="round" stroke-linejoin="round"/> <path d="M24 19V8C24 5.79086 25.7909 4 28 4H40C42.2091 4 44 5.79086 44 8V19" stroke="#ff0000" stroke-width="4" stroke-linecap="round" stroke-linejoin="round"/> <path d="M28 33L24 29L20 33" stroke="#ff0000" stroke-width="4" stroke-linecap="round" stroke-linejoin="round"/> <path d="M24 29V40C24 42.2091 22.2091 44 20 44H8C5.79086 44 4 42.2091 4 40V29" stroke="#ff0000" stroke-width="4" stroke-linecap="round" stroke-linejoin="round"/> <path d="M33 20L29 24L33 28" stroke="#ff0000" stroke-width="4" stroke-linecap="round" stroke-linejoin="round"/> <path d="M29 24L40 24C42.2091 24 44 25.7909 44 28V40C44 42.2091 42.2091 44 40 44H29" stroke="#ff0000" stroke-width="4" stroke-linecap="round" stroke-linejoin="round"/> <path d="M15 28L19 24L15 20" stroke="#ff0000" stroke-width="4" stroke-linecap="round" stroke-linejoin="round"/> <path d="M19 24L8 24C5.79086 24 4 22.2091 4 20L4 8C4 5.79086 5.79086 4 8 4L19 4" stroke="#ff0000" stroke-width="4" stroke-linecap="round" stroke-linejoin="round"/> </g>
</svg>