<!DOCTYPE svg PUBLIC "-//W3C//DTD SVG 1.1//EN" "http://www.w3.org/Graphics/SVG/1.1/DTD/svg11.dtd">
<!-- Uploaded to: SVG Repo, www.svgrepo.com, Transformed by: SVG Repo Mixer Tools -->
<svg width="800px" height="800px" viewBox="-4.8 -4.8 57.60 57.60" fill="none" xmlns="http://www.w3.org/2000/svg">
<g id="SVGRepo_bgCarrier" stroke-width="0">
<rect x="-4.8" y="-4.8" width="57.60" height="57.60" rx="2.88" fill="#cf5454" strokewidth="0"/>
</g>
<g id="SVGRepo_tracerCarrier" stroke-linecap="round" stroke-linejoin="round"/>
<g id="SVGRepo_iconCarrier"> <rect width="48" height="48" fill="white" fill-opacity="0.01"/> <path d="M13 35H7V41" stroke="#ffffff" stroke-width="4" stroke-linecap="round" stroke-linejoin="round"/> <path d="M41 41H35V35" stroke="#ffffff" stroke-width="4" stroke-linecap="round" stroke-linejoin="round"/> <path d="M35 13H41V7" stroke="#ffffff" stroke-width="4" stroke-linecap="round" stroke-linejoin="round"/> <path d="M7 7H13V13" stroke="#ffffff" stroke-width="4" stroke-linecap="round" stroke-linejoin="round"/> <path d="M13 7.29405C7.57778 10.8715 4 17.0179 4 24C4 25.0196 4.0763 26.0214 4.2235 27" stroke="#ffffff" stroke-width="4" stroke-linecap="round" stroke-linejoin="round"/> <path d="M26.9999 43.7765C26.0213 43.9237 25.0195 44 23.9999 44C17.0178 44 10.8714 40.4222 7.29395 35" stroke="#ffffff" stroke-width="4" stroke-linecap="round" stroke-linejoin="round"/> <path d="M43.7765 21C43.9237 21.9786 44 22.9804 44 24C44 30.9821 40.4222 37.1285 35 40.706" stroke="#ffffff" stroke-width="4" stroke-linecap="round" stroke-linejoin="round"/> <path d="M21 4.2235C21.9786 4.0763 22.9804 4 24 4C30.9821 4 37.1285 7.57778 40.706 13" stroke="#ffffff" stroke-width="4" stroke-linecap="round" stroke-linejoin="round"/> </g>
</svg>