<svg xmlns="http://www.w3.org/2000/svg" xmlns:xlink="http://www.w3.org/1999/xlink" width="100" zoomAndPan="magnify" viewBox="0 0 75 74.999997" height="100" preserveAspectRatio="xMidYMid meet" version="1.0"><defs><g/></defs><path fill="#fad50a" d="M 37.5 64.210938 C 39.140625 62.109375 40.75 60.796875 45.128906 60.648438 C 50.617188 60.457031 51.386719 62.382812 54.867188 64.945312 L 54.964844 65.015625 C 54.160156 60.75 55.238281 57.722656 59.074219 55.460938 C 62.953125 53.171875 66.453125 53.59375 70.613281 55.085938 C 65.535156 51.644531 64.761719 44.816406 70.792969 41.128906 C 72.453125 40.117188 74.433594 39.625 76.714844 39.460938 L 74.671875 39.039062 C 72.84375 38.617188 71.460938 37.886719 70.203125 36.929688 C 68.546875 35.644531 66.585938 33.050781 67.039062 29.65625 C 67.46875 26.417969 69.28125 25.21875 71.246094 23.539062 C 68.960938 24.089844 67.585938 24.652344 64.8125 24.316406 C 59.683594 23.695312 54.460938 19.511719 56.300781 13.039062 C 45.078125 22.585938 39.542969 13.769531 37.5 10.207031 C 35.453125 13.769531 29.917969 22.585938 18.695312 13.039062 C 20.539062 19.511719 15.3125 23.695312 10.179688 24.316406 C 7.40625 24.652344 6.039062 24.089844 3.753906 23.539062 C 5.71875 25.21875 7.523438 26.417969 7.957031 29.65625 C 8.410156 33.050781 6.453125 35.644531 4.796875 36.929688 C 3.535156 37.886719 2.15625 38.617188 0.324219 39.039062 L -1.714844 39.460938 C 0.566406 39.625 2.546875 40.117188 4.203125 41.128906 C 10.234375 44.816406 9.460938 51.644531 4.378906 55.085938 C 8.546875 53.59375 12.046875 53.171875 15.925781 55.460938 C 19.757812 57.722656 20.832031 60.75 20.035156 65.015625 L 20.128906 64.945312 C 23.609375 62.382812 24.382812 60.457031 29.871094 60.648438 C 34.246094 60.796875 35.851562 62.109375 37.5 64.210938 Z M 37.5 64.210938 " fill-opacity="1" fill-rule="evenodd"/><path fill="#6a0632" d="M 37.546875 62.917969 C 39.175781 60.835938 40.765625 59.535156 45.105469 59.390625 C 50.542969 59.203125 51.3125 61.109375 54.757812 63.648438 L 54.855469 63.71875 C 54.058594 59.488281 55.125 56.492188 58.921875 54.253906 C 62.769531 51.984375 66.238281 52.402344 70.367188 53.878906 C 65.328125 50.46875 64.5625 43.699219 70.539062 40.050781 C 72.179688 39.042969 74.144531 38.558594 76.40625 38.390625 L 74.386719 37.976562 C 72.570312 37.558594 71.203125 36.835938 69.953125 35.886719 C 68.3125 34.613281 66.367188 32.042969 66.820312 28.679688 C 67.246094 25.464844 69.039062 24.277344 70.984375 22.613281 C 68.722656 23.160156 67.367188 23.714844 64.613281 23.386719 C 59.53125 22.773438 54.351562 18.625 56.179688 12.214844 C 45.058594 21.675781 39.570312 12.933594 37.546875 9.402344 C 35.519531 12.933594 30.035156 21.675781 18.910156 12.214844 C 20.738281 18.625 15.5625 22.773438 10.476562 23.386719 C 7.726562 23.714844 6.371094 23.160156 4.105469 22.613281 C 6.050781 24.277344 7.84375 25.464844 8.269531 28.679688 C 8.722656 32.042969 6.78125 34.613281 5.136719 35.886719 C 3.890625 36.835938 2.523438 37.558594 0.707031 37.976562 L -1.3125 38.390625 C 0.945312 38.558594 2.910156 39.042969 4.550781 40.050781 C 10.527344 43.699219 9.761719 50.46875 4.726562 53.878906 C 8.855469 52.402344 12.320312 51.984375 16.167969 54.253906 C 19.964844 56.492188 21.03125 59.488281 20.234375 63.71875 L 20.332031 63.648438 C 23.78125 61.109375 24.546875 59.203125 29.984375 59.390625 C 34.324219 59.535156 35.914062 60.835938 37.546875 62.917969 Z M 37.546875 62.917969 " fill-opacity="1" fill-rule="evenodd"/><path fill="#fad50a" d="M 8.421875 12.988281 L 11.671875 19.816406 L 15.011719 18.109375 Z M 8.421875 12.988281 " fill-opacity="1" fill-rule="evenodd"/><path fill="#6a0632" d="M 8.101562 13.414062 L 11.351562 20.242188 L 14.691406 18.53125 Z M 8.101562 13.414062 " fill-opacity="1" fill-rule="evenodd"/><path fill="#fad50a" d="M 28.609375 11.441406 L 32.023438 10.421875 L 26.921875 0.125 Z M 28.609375 11.441406 " fill-opacity="1" fill-rule="evenodd"/><path fill="#6a0632" d="M 28.242188 11.675781 L 31.65625 10.664062 L 26.554688 0.363281 Z M 28.242188 11.675781 " fill-opacity="1" fill-rule="evenodd"/><path fill="#fad50a" d="M 24.925781 12.320312 L 26.851562 12.464844 L 25.59375 5.605469 Z M 24.925781 12.320312 " fill-opacity="1" fill-rule="evenodd"/><path fill="#6a0632" d="M 24.558594 12.558594 L 26.484375 12.703125 L 25.226562 5.84375 Z M 24.558594 12.558594 " fill-opacity="1" fill-rule="evenodd"/><path fill="#fad50a" d="M 50.554688 6.132812 L 45.929688 12.113281 L 48.964844 14.320312 Z M 50.554688 6.132812 " fill-opacity="1" fill-rule="evenodd"/><path fill="#6a0632" d="M 50.03125 6.035156 L 45.40625 12.015625 L 48.4375 14.226562 Z M 50.03125 6.035156 " fill-opacity="1" fill-rule="evenodd"/><path fill="#fad50a" d="M 59.050781 16.246094 L 61.582031 18.746094 L 68.148438 9.316406 Z M 59.050781 16.246094 " fill-opacity="1" fill-rule="evenodd"/><path fill="#6a0632" d="M 58.660156 16.039062 L 61.195312 18.539062 L 67.761719 9.109375 Z M 58.660156 16.039062 " fill-opacity="1" fill-rule="evenodd"/><path fill="#fad50a" d="M 63.113281 19.292969 L 64.640625 20.804688 L 68.605469 15.113281 Z M 63.113281 19.292969 " fill-opacity="1" fill-rule="evenodd"/><path fill="#6a0632" d="M 62.878906 19.171875 L 64.40625 20.679688 L 68.371094 14.984375 Z M 62.878906 19.171875 " fill-opacity="1" fill-rule="evenodd"/><path fill="#fad50a" d="M 8.523438 64.273438 L 11.769531 57.445312 L 15.113281 59.152344 Z M 8.523438 64.273438 " fill-opacity="1" fill-rule="evenodd"/><path fill="#6a0632" d="M 8.203125 63.847656 L 11.449219 57.019531 L 14.792969 58.730469 Z M 8.203125 63.847656 " fill-opacity="1" fill-rule="evenodd"/><path fill="#fad50a" d="M 30.394531 63.558594 L 33.808594 64.578125 L 28.710938 74.875 Z M 30.394531 63.558594 " fill-opacity="1" fill-rule="evenodd"/><path fill="#6a0632" d="M 30.027344 63.324219 L 33.441406 64.335938 L 28.34375 74.636719 Z M 30.027344 63.324219 " fill-opacity="1" fill-rule="evenodd"/><path fill="#fad50a" d="M 26.714844 62.679688 L 28.640625 62.535156 L 27.382812 69.394531 Z M 26.714844 62.679688 " fill-opacity="1" fill-rule="evenodd"/><path fill="#6a0632" d="M 26.347656 62.441406 L 28.273438 62.296875 L 27.015625 69.15625 Z M 26.347656 62.441406 " fill-opacity="1" fill-rule="evenodd"/><path fill="#fad50a" d="M 46.304688 70.507812 L 41.679688 64.523438 L 44.714844 62.316406 Z M 46.304688 70.507812 " fill-opacity="1" fill-rule="evenodd"/><path fill="#6a0632" d="M 45.78125 70.601562 L 41.15625 64.617188 L 44.191406 62.410156 Z M 45.78125 70.601562 " fill-opacity="1" fill-rule="evenodd"/><path fill="#fad50a" d="M 57.089844 59.875 L 59.625 57.371094 L 66.1875 66.808594 Z M 57.089844 59.875 " fill-opacity="1" fill-rule="evenodd"/><path fill="#6a0632" d="M 56.703125 60.082031 L 59.238281 57.578125 L 65.804688 67.015625 Z M 56.703125 60.082031 " fill-opacity="1" fill-rule="evenodd"/><path fill="#fad50a" d="M 61.15625 56.828125 L 62.683594 55.320312 L 66.644531 61.011719 Z M 61.15625 56.828125 " fill-opacity="1" fill-rule="evenodd"/><path fill="#6a0632" d="M 60.921875 56.953125 L 62.449219 55.441406 L 66.410156 61.132812 Z M 60.921875 56.953125 " fill-opacity="1" fill-rule="evenodd"/><g fill="#ffffff" fill-opacity="1"><g transform="translate(30.100379, 35.601262)"><g><path d="M 7.207031 -3.988281 L 7.425781 -4.96875 C 7.425781 -5.046875 7.394531 -5.15625 7.269531 -5.15625 C 6.796875 -5.15625 6.324219 -5.140625 5.867188 -5.125 C 6.402344 -7.523438 7.078125 -10.042969 7.472656 -11.417969 C 7.472656 -11.480469 7.472656 -11.542969 7.425781 -11.542969 C 4.101562 -10.375 0.15625 -5.675781 -0.285156 -3.707031 C -0.285156 -3.59375 -0.222656 -3.53125 -0.125 -3.53125 C 0.804688 -3.832031 2.097656 -3.941406 3.328125 -3.972656 C 2.964844 -2.585938 2.570312 -0.976562 2.238281 0.757812 C 2.238281 0.914062 2.269531 0.914062 2.347656 0.914062 C 2.554688 0.914062 3.484375 0.1875 4.605469 0 C 5.015625 0 5.0625 -0.347656 5.0625 -0.773438 C 5.140625 -1.609375 5.34375 -2.757812 5.613281 -3.988281 Z M 1.136719 -4.507812 C 1.054688 -4.507812 1.054688 -4.542969 1.054688 -4.589844 C 1.054688 -4.917969 1.65625 -5.804688 1.890625 -6.179688 C 2.523438 -7.160156 3.738281 -8.40625 4.714844 -8.941406 C 4.761719 -8.941406 4.777344 -8.910156 4.777344 -8.863281 C 4.777344 -8.6875 4.242188 -7.207031 3.59375 -4.953125 C 2.570312 -4.824219 1.6875 -4.667969 1.136719 -4.507812 Z M 1.136719 -4.507812 "/></g></g></g><g fill="#ffffff" fill-opacity="1"><g transform="translate(37.604561, 35.601262)"><g><path d="M -0.519531 0.535156 C 1.84375 0.789062 3.863281 0.203125 5.21875 -1.640625 C 5.929688 -2.617188 6.8125 -4.460938 6.8125 -5.691406 C 6.8125 -6.464844 6.164062 -7.570312 5.25 -7.570312 C 4.148438 -7.570312 3.152344 -7.175781 2.097656 -6.875 C 2.917969 -9.113281 3.074219 -9.460938 3.214844 -9.730469 C 4.085938 -9.871094 6.070312 -9.730469 6.78125 -9.777344 C 6.9375 -10.203125 7.207031 -10.660156 7.394531 -11.039062 C 7.425781 -11.117188 7.425781 -11.195312 7.425781 -11.273438 C 7.425781 -11.382812 7.316406 -11.335938 7.207031 -11.335938 C 6.355469 -11.335938 2.601562 -10.785156 2.316406 -10.265625 C 1.765625 -9.257812 1.089844 -6.796875 0.664062 -5.472656 C 0.664062 -5.394531 0.742188 -5.34375 0.820312 -5.34375 C 1.386719 -5.675781 3.5 -6.148438 4.367188 -6.148438 C 4.445312 -6.148438 4.460938 -5.992188 4.460938 -5.992188 C 3.375 -2.269531 2.773438 -1.371094 2.316406 -0.535156 C 2.238281 -0.394531 2.160156 -0.15625 1.972656 -0.15625 C 1.214844 -0.15625 0.332031 -0.695312 0.0625 -0.695312 C -0.015625 -0.695312 -0.015625 -0.695312 -0.09375 -0.613281 C -0.253906 -0.347656 -0.550781 0.078125 -0.550781 0.378906 C -0.550781 0.410156 -0.550781 0.488281 -0.519531 0.535156 Z M -0.519531 0.535156 "/></g></g></g><g fill="#ffffff" fill-opacity="1"><g transform="translate(12.089715, 49.622742)"><g><path d="M 2.089844 0.308594 C 2.40625 0.160156 2.75 0.0078125 3.0625 0.0078125 C 3.089844 0.0078125 3.183594 -0.0195312 3.191406 -0.0898438 C 3.300781 -1.316406 3.636719 -3.023438 4.199219 -4.773438 C 4.25 -4.9375 4.304688 -5.011719 4.304688 -5.074219 C 4.304688 -5.109375 4.269531 -5.132812 4.234375 -5.132812 C 4.09375 -5.132812 3.203125 -4.929688 3.097656 -4.65625 C 2.917969 -4.15625 2.753906 -3.632812 2.613281 -3.085938 C 2.300781 -3.042969 1.941406 -3.007812 1.703125 -2.992188 C 1.835938 -3.546875 2 -4.128906 2.1875 -4.710938 C 2.238281 -4.871094 2.292969 -4.949219 2.292969 -5.011719 C 2.292969 -5.046875 2.257812 -5.070312 2.222656 -5.070312 C 2.082031 -5.070312 1.191406 -4.867188 1.085938 -4.59375 C 0.546875 -3.125 0.203125 -1.332031 0 0.257812 C 0.0078125 0.300781 0 0.359375 0.078125 0.371094 C 0.394531 0.222656 0.734375 0.0703125 1.050781 0.0703125 C 1.078125 0.0703125 1.171875 0.0429688 1.179688 -0.0273438 C 1.242188 -0.742188 1.382812 -1.621094 1.597656 -2.574219 C 1.921875 -2.601562 2.238281 -2.628906 2.511719 -2.636719 C 2.292969 -1.691406 2.125 -0.714844 2.011719 0.195312 C 2.019531 0.238281 2.011719 0.292969 2.089844 0.308594 Z M 2.089844 0.308594 "/></g></g></g><g fill="#ffffff" fill-opacity="1"><g transform="translate(16.001734, 49.622742)"><g><path d="M 2.132812 -2.761719 C 1.976562 -2.59375 1.765625 -1.484375 1.683594 -0.875 C 1.507812 -0.742188 1.199219 -0.492188 1.050781 -0.492188 C 1.03125 -0.492188 1.003906 -0.492188 1.003906 -0.527344 C 1.003906 -1.464844 1.207031 -2.089844 1.445312 -2.699219 C 1.464844 -2.75 1.492188 -2.816406 1.5625 -2.816406 C 1.683594 -2.816406 1.835938 -2.789062 2.019531 -2.785156 C 2.074219 -2.816406 2.171875 -3.070312 2.171875 -3.140625 C 2.171875 -3.191406 2.082031 -3.191406 2.039062 -3.191406 C 1.800781 -3.191406 0.96875 -2.9375 0.644531 -2.648438 C 0.203125 -2.257812 0.0703125 -1.109375 0.0703125 -0.625 C 0.0703125 -0.324219 0.308594 0.152344 0.679688 0.152344 C 0.882812 0.152344 1.332031 -0.351562 1.648438 -0.632812 L 1.648438 -0.527344 C 1.648438 -0.257812 1.792969 0.167969 2.019531 0.167969 C 2.269531 0.167969 2.957031 -0.308594 2.972656 -0.371094 C 2.980469 -0.40625 2.988281 -0.460938 2.988281 -0.492188 C 2.988281 -0.546875 2.988281 -0.5625 2.957031 -0.5625 C 2.894531 -0.5625 2.777344 -0.441406 2.636719 -0.441406 C 2.601562 -0.441406 2.601562 -0.476562 2.601562 -0.511719 C 2.601562 -0.804688 2.886719 -2.488281 3.125 -3.078125 C 3.125 -3.125 3.058594 -3.140625 3.023438 -3.140625 C 2.886719 -3.140625 2.320312 -2.910156 2.132812 -2.761719 Z M 2.132812 -2.761719 "/></g></g></g><g fill="#ffffff" fill-opacity="1"><g transform="translate(19.268763, 49.622742)"><g><path d="M 1.851562 -0.1875 C 1.933594 -0.230469 2.039062 -0.421875 2.039062 -0.511719 C 2.039062 -0.539062 2.027344 -0.5625 2 -0.5625 C 1.976562 -0.5625 1.957031 -0.554688 1.929688 -0.53125 C 1.738281 -0.414062 1.207031 -0.257812 1.050781 -0.257812 C 1.03125 -0.257812 1.003906 -0.257812 1.003906 -0.292969 C 1.003906 -1.234375 1.207031 -2.089844 1.445312 -2.699219 C 1.464844 -2.75 1.492188 -2.816406 1.5625 -2.816406 C 1.683594 -2.816406 1.941406 -2.726562 2.125 -2.71875 C 2.179688 -2.753906 2.269531 -3.070312 2.269531 -3.140625 C 2.269531 -3.191406 2.179688 -3.191406 2.136719 -3.191406 C 1.691406 -3.191406 0.96875 -2.9375 0.644531 -2.648438 C 0.203125 -2.257812 0.0703125 -1.109375 0.0703125 -0.625 C 0.0703125 -0.324219 0.308594 0.152344 0.679688 0.152344 C 0.90625 0.152344 1.421875 0.0273438 1.851562 -0.1875 Z M 1.851562 -0.1875 "/></g></g></g><g fill="#ffffff" fill-opacity="1"><g transform="translate(21.533245, 49.622742)"><g><path d="M 2.0625 -5.082031 C 2.0625 -5.144531 2.046875 -5.144531 1.992188 -5.144531 C 1.808594 -5.144531 1.074219 -4.878906 0.996094 -4.621094 C 0.53125 -3.0625 0.140625 -1.234375 -0.078125 0.132812 C -0.078125 0.148438 -0.0429688 0.148438 -0.0078125 0.148438 C 0.0507812 0.148438 0.449219 -0.140625 0.882812 -0.1875 C 0.933594 -0.1875 0.980469 -0.707031 1.15625 -1.621094 C 1.640625 -0.90625 1.921875 0.152344 2.265625 0.152344 C 2.433594 0.152344 2.816406 -0.0898438 3.027344 -0.28125 C 3.0625 -0.308594 3.125 -0.398438 3.125 -0.519531 C 3.125 -0.574219 3.113281 -0.617188 3.0625 -0.632812 C 3.027344 -0.601562 2.910156 -0.496094 2.839844 -0.496094 C 2.691406 -0.496094 1.90625 -1.859375 1.90625 -2.011719 C 2.300781 -2.335938 2.585938 -2.585938 2.894531 -2.957031 C 2.957031 -3.035156 3.015625 -3.113281 3.015625 -3.160156 C 3.015625 -3.210938 2.964844 -3.238281 2.839844 -3.238281 C 2.699219 -3.238281 2.496094 -3.21875 2.371094 -3.160156 C 2.238281 -3.078125 2.125 -2.503906 1.191406 -1.800781 C 1.3125 -2.425781 1.492188 -3.203125 1.757812 -4.117188 C 1.859375 -4.453125 1.929688 -4.761719 2.0625 -5.082031 Z M 2.0625 -5.082031 "/></g></g></g><g fill="#ffffff" fill-opacity="1"><g transform="translate(24.758206, 49.622742)"><g><path d="M 2.496094 -2.621094 C 2.496094 -2.894531 2.304688 -3.195312 2 -3.195312 C 1.5 -3.195312 0.835938 -2.847656 0.433594 -2.503906 C 0.203125 -2.257812 0 -0.882812 0 -0.601562 C 0 -0.316406 0.292969 0.152344 0.617188 0.152344 C 1.164062 0.152344 1.964844 -0.421875 1.96875 -0.425781 C 2.066406 -0.527344 2.136719 -0.671875 2.136719 -0.757812 C 2.136719 -0.800781 2.109375 -0.8125 2.082031 -0.8125 C 2.027344 -0.8125 1.5 -0.363281 0.960938 -0.363281 C 0.910156 -0.363281 0.910156 -0.414062 0.910156 -0.449219 C 0.925781 -0.699219 0.96875 -1.007812 1.023438 -1.316406 C 1.824219 -1.472656 2.496094 -2 2.496094 -2.621094 Z M 1.4375 -2.777344 C 1.621094 -2.777344 1.71875 -2.550781 1.71875 -2.417969 C 1.71875 -2.179688 1.5625 -1.621094 1.058594 -1.542969 C 1.183594 -2.195312 1.347656 -2.777344 1.4375 -2.777344 Z M 1.4375 -2.777344 "/></g></g></g><g fill="#ffffff" fill-opacity="1"><g transform="translate(27.211981, 49.622742)"><g><path d="M 0.96875 -0.257812 C 0.96875 -0.847656 1.242188 -2.046875 1.289062 -2.195312 C 1.515625 -2.195312 1.667969 -2.160156 1.800781 -2.160156 C 1.878906 -2.160156 1.90625 -2.1875 1.921875 -2.25 C 2 -2.550781 2.144531 -3.273438 2.152344 -3.273438 C 2.152344 -3.300781 2.109375 -3.316406 2.089844 -3.316406 C 2.003906 -3.316406 1.710938 -2.945312 1.613281 -2.839844 C 1.507812 -2.726562 1.402344 -2.558594 1.359375 -2.550781 C 1.417969 -2.789062 1.515625 -3.160156 1.515625 -3.238281 C 1.515625 -3.28125 1.480469 -3.28125 1.464844 -3.28125 C 1.210938 -3.28125 0.800781 -3.0625 0.582031 -2.910156 C 0.363281 -2.707031 0 -0.324219 0 -0.0195312 C 0 0.167969 0.0703125 0.167969 0.0703125 0.167969 C 0.175781 0.167969 0.5625 -0.0859375 0.90625 -0.0859375 C 0.953125 -0.0859375 0.96875 -0.203125 0.96875 -0.257812 Z M 0.96875 -0.257812 "/></g></g></g><g fill="#ffffff" fill-opacity="1"><g transform="translate(29.224081, 49.622742)"><g><path d="M 2.132812 -2.761719 C 1.976562 -2.59375 1.765625 -1.484375 1.683594 -0.875 C 1.507812 -0.742188 1.199219 -0.492188 1.050781 -0.492188 C 1.03125 -0.492188 1.003906 -0.492188 1.003906 -0.527344 C 1.003906 -1.464844 1.207031 -2.089844 1.445312 -2.699219 C 1.464844 -2.75 1.492188 -2.816406 1.5625 -2.816406 C 1.683594 -2.816406 1.835938 -2.789062 2.019531 -2.785156 C 2.074219 -2.816406 2.171875 -3.070312 2.171875 -3.140625 C 2.171875 -3.191406 2.082031 -3.191406 2.039062 -3.191406 C 1.800781 -3.191406 0.96875 -2.9375 0.644531 -2.648438 C 0.203125 -2.257812 0.0703125 -1.109375 0.0703125 -0.625 C 0.0703125 -0.324219 0.308594 0.152344 0.679688 0.152344 C 0.882812 0.152344 1.332031 -0.351562 1.648438 -0.632812 L 1.648438 -0.527344 C 1.648438 -0.257812 1.792969 0.167969 2.019531 0.167969 C 2.269531 0.167969 2.957031 -0.308594 2.972656 -0.371094 C 2.980469 -0.40625 2.988281 -0.460938 2.988281 -0.492188 C 2.988281 -0.546875 2.988281 -0.5625 2.957031 -0.5625 C 2.894531 -0.5625 2.777344 -0.441406 2.636719 -0.441406 C 2.601562 -0.441406 2.601562 -0.476562 2.601562 -0.511719 C 2.601562 -0.804688 2.886719 -2.488281 3.125 -3.078125 C 3.125 -3.125 3.058594 -3.140625 3.023438 -3.140625 C 2.886719 -3.140625 2.320312 -2.910156 2.132812 -2.761719 Z M 2.132812 -2.761719 "/></g></g></g><g fill="#ffffff" fill-opacity="1"><g transform="translate(32.49111, 49.622742)"><g><path d="M 1.015625 -0.253906 C 1.015625 -0.597656 1.226562 -1.585938 1.402344 -2.3125 C 1.648438 -2.433594 1.859375 -2.550781 2.03125 -2.550781 C 2.054688 -2.550781 2.132812 -2.550781 2.132812 -2.46875 C 2.132812 -2.265625 1.78125 -1.113281 1.78125 -0.589844 C 1.78125 -0.316406 1.921875 0.125 2.242188 0.125 C 2.445312 0.125 3.191406 -0.113281 3.191406 -0.351562 C 3.191406 -0.398438 3.175781 -0.457031 3.125 -0.457031 C 3.042969 -0.457031 2.867188 -0.351562 2.777344 -0.351562 C 2.734375 -0.351562 2.714844 -0.371094 2.714844 -0.421875 C 2.714844 -1.128906 3.175781 -2.664062 3.175781 -3.015625 C 3.175781 -3.203125 2.917969 -3.253906 2.785156 -3.253906 C 2.433594 -3.253906 1.828125 -2.804688 1.464844 -2.566406 C 1.550781 -2.882812 1.613281 -3.105469 1.632812 -3.148438 C 1.632812 -3.203125 1.613281 -3.21875 1.527344 -3.21875 C 1.191406 -3.195312 0.917969 -3.058594 0.617188 -2.894531 C 0.511719 -2.839844 0.0078125 -0.253906 0 -0.015625 C 0 0.175781 0.0703125 0.175781 0.0703125 0.175781 C 0.175781 0.175781 0.609375 -0.078125 0.953125 -0.078125 C 1.003906 -0.078125 1.015625 -0.195312 1.015625 -0.253906 Z M 1.015625 -0.253906 "/></g></g></g><g fill="#ffffff" fill-opacity="1"><g transform="translate(35.891341, 49.622742)"><g><path d="M 2.0625 -5.082031 C 2.0625 -5.144531 2.046875 -5.144531 1.992188 -5.144531 C 1.808594 -5.144531 1.074219 -4.878906 0.996094 -4.621094 C 0.53125 -3.0625 0.140625 -1.234375 -0.078125 0.132812 C -0.078125 0.148438 -0.0429688 0.148438 -0.0078125 0.148438 C 0.0507812 0.148438 0.449219 -0.140625 0.882812 -0.1875 C 0.933594 -0.1875 0.980469 -0.707031 1.15625 -1.621094 C 1.640625 -0.90625 1.921875 0.152344 2.265625 0.152344 C 2.433594 0.152344 2.816406 -0.0898438 3.027344 -0.28125 C 3.0625 -0.308594 3.125 -0.398438 3.125 -0.519531 C 3.125 -0.574219 3.113281 -0.617188 3.0625 -0.632812 C 3.027344 -0.601562 2.910156 -0.496094 2.839844 -0.496094 C 2.691406 -0.496094 1.90625 -1.859375 1.90625 -2.011719 C 2.300781 -2.335938 2.585938 -2.585938 2.894531 -2.957031 C 2.957031 -3.035156 3.015625 -3.113281 3.015625 -3.160156 C 3.015625 -3.210938 2.964844 -3.238281 2.839844 -3.238281 C 2.699219 -3.238281 2.496094 -3.21875 2.371094 -3.160156 C 2.238281 -3.078125 2.125 -2.503906 1.191406 -1.800781 C 1.3125 -2.425781 1.492188 -3.203125 1.757812 -4.117188 C 1.859375 -4.453125 1.929688 -4.761719 2.0625 -5.082031 Z M 2.0625 -5.082031 "/></g></g></g><g fill="#ffffff" fill-opacity="1"><g transform="translate(39.116301, 49.622742)"><g/></g></g><g fill="#ffffff" fill-opacity="1"><g transform="translate(40.525203, 49.622742)"><g><path d="M -0.132812 1.507812 C -0.132812 1.589844 -0.121094 1.589844 -0.0507812 1.589844 C 0.0078125 1.589844 0.335938 1.277344 0.730469 1.109375 C 0.828125 1.066406 0.925781 1.042969 0.925781 0.917969 C 0.9375 0.679688 0.96875 0.421875 1.003906 0.152344 L 1.179688 0.152344 C 1.605469 0.152344 2.054688 0.121094 2.453125 -0.273438 C 2.875 -0.6875 3.167969 -2.082031 3.167969 -2.566406 C 3.167969 -2.867188 2.839844 -3.230469 2.46875 -3.230469 C 2.277344 -3.230469 1.835938 -2.992188 1.515625 -2.761719 C 1.542969 -2.894531 1.5625 -3.015625 1.589844 -3.125 C 1.589844 -3.175781 1.5625 -3.21875 1.515625 -3.21875 C 1.304688 -3.21875 0.6875 -3.050781 0.636719 -2.894531 C 0.308594 -1.933594 -0.132812 0.972656 -0.132812 1.507812 Z M 1.472656 -2.550781 C 1.660156 -2.636719 1.933594 -2.71875 2.167969 -2.71875 C 2.1875 -2.71875 2.214844 -2.71875 2.214844 -2.683594 C 2.214844 -1.746094 1.933594 -0.898438 1.683594 -0.292969 C 1.613281 -0.132812 1.28125 -0.105469 1.03125 -0.0898438 C 1.148438 -0.925781 1.324219 -1.835938 1.472656 -2.550781 Z M 1.472656 -2.550781 "/></g></g></g><g fill="#ffffff" fill-opacity="1"><g transform="translate(43.750164, 49.622742)"><g><path d="M 0.96875 -0.257812 C 0.96875 -0.847656 1.242188 -2.046875 1.289062 -2.195312 C 1.515625 -2.195312 1.667969 -2.160156 1.800781 -2.160156 C 1.878906 -2.160156 1.90625 -2.1875 1.921875 -2.25 C 2 -2.550781 2.144531 -3.273438 2.152344 -3.273438 C 2.152344 -3.300781 2.109375 -3.316406 2.089844 -3.316406 C 2.003906 -3.316406 1.710938 -2.945312 1.613281 -2.839844 C 1.507812 -2.726562 1.402344 -2.558594 1.359375 -2.550781 C 1.417969 -2.789062 1.515625 -3.160156 1.515625 -3.238281 C 1.515625 -3.28125 1.480469 -3.28125 1.464844 -3.28125 C 1.210938 -3.28125 0.800781 -3.0625 0.582031 -2.910156 C 0.363281 -2.707031 0 -0.324219 0 -0.0195312 C 0 0.167969 0.0703125 0.167969 0.0703125 0.167969 C 0.175781 0.167969 0.5625 -0.0859375 0.90625 -0.0859375 C 0.953125 -0.0859375 0.96875 -0.203125 0.96875 -0.257812 Z M 0.96875 -0.257812 "/></g></g></g><g fill="#ffffff" fill-opacity="1"><g transform="translate(45.762264, 49.622742)"><g><path d="M 0 -1.148438 C 0 -0.511719 0.371094 0.152344 0.765625 0.152344 C 2.621094 0.152344 2.902344 -1.921875 2.902344 -2.453125 C 2.902344 -2.734375 2.40625 -3.191406 2.125 -3.191406 C 1.585938 -3.191406 0.34375 -2.636719 0.210938 -2.242188 C 0.0429688 -1.730469 0 -1.589844 0 -1.148438 Z M 1.921875 -2.753906 C 1.964844 -2.753906 1.976562 -2.726562 1.976562 -2.699219 C 1.976562 -2.152344 1.726562 -1.21875 1.394531 -0.386719 C 1.359375 -0.289062 1.253906 -0.0976562 1.121094 -0.0976562 C 0.925781 -0.0976562 0.898438 -0.792969 0.898438 -0.8125 C 0.90625 -1.359375 1.109375 -2.609375 1.417969 -2.679688 C 1.605469 -2.71875 1.757812 -2.753906 1.921875 -2.753906 Z M 1.921875 -2.753906 "/></g></g></g><g fill="#ffffff" fill-opacity="1"><g transform="translate(48.699782, 49.622742)"><g><path d="M 1.894531 -5.160156 C 1.894531 -5.230469 1.84375 -5.242188 1.808594 -5.242188 C 1.675781 -5.242188 1.464844 -5.152344 1.316406 -5.117188 C 0.90625 -5.011719 0.847656 -4.816406 0.769531 -4.550781 C 0.6875 -4.136719 0.0429688 -2.269531 0.0429688 -1.003906 C 0.0429688 -0.539062 0.386719 0.152344 0.769531 0.152344 C 2.203125 0.152344 2.875 -1.484375 2.875 -2.714844 C 2.875 -2.988281 2.46875 -3.261719 2.214844 -3.261719 C 1.984375 -3.261719 1.570312 -3.0625 1.296875 -2.9375 C 1.554688 -4.011719 1.859375 -4.90625 1.894531 -5.160156 Z M 1.859375 -2.796875 C 1.863281 -2.785156 1.871094 -2.753906 1.871094 -2.71875 C 1.871094 -2.300781 1.519531 -0.210938 1.007812 -0.210938 C 0.996094 -0.210938 0.972656 -0.210938 0.960938 -0.21875 C 0.9375 -0.222656 0.925781 -0.257812 0.925781 -0.28125 C 0.925781 -1.039062 1.066406 -1.878906 1.234375 -2.648438 C 1.570312 -2.769531 1.800781 -2.796875 1.859375 -2.796875 Z M 1.859375 -2.796875 "/></g></g></g><g fill="#ffffff" fill-opacity="1"><g transform="translate(51.595241, 49.622742)"><g><path d="M 1.074219 -4.886719 C 0.882812 -4.675781 0 -0.820312 0 -0.503906 C 0 -0.238281 0.148438 0.1875 0.371094 0.1875 C 0.6875 0.1875 1.71875 -0.460938 1.730469 -0.527344 C 1.738281 -0.5625 1.746094 -0.617188 1.746094 -0.644531 C 1.746094 -0.699219 1.746094 -0.714844 1.71875 -0.714844 C 1.65625 -0.714844 1.128906 -0.421875 0.988281 -0.421875 C 0.953125 -0.421875 0.953125 -0.457031 0.953125 -0.492188 C 0.953125 -0.785156 1.632812 -4.199219 2.03125 -5.144531 C 2.03125 -5.195312 1.964844 -5.207031 1.929688 -5.207031 C 1.792969 -5.207031 1.261719 -5.035156 1.074219 -4.886719 Z M 1.074219 -4.886719 "/></g></g></g><g fill="#ffffff" fill-opacity="1"><g transform="translate(53.467123, 49.622742)"><g><path d="M 2.496094 -2.621094 C 2.496094 -2.894531 2.304688 -3.195312 2 -3.195312 C 1.5 -3.195312 0.835938 -2.847656 0.433594 -2.503906 C 0.203125 -2.257812 0 -0.882812 0 -0.601562 C 0 -0.316406 0.292969 0.152344 0.617188 0.152344 C 1.164062 0.152344 1.964844 -0.421875 1.96875 -0.425781 C 2.066406 -0.527344 2.136719 -0.671875 2.136719 -0.757812 C 2.136719 -0.800781 2.109375 -0.8125 2.082031 -0.8125 C 2.027344 -0.8125 1.5 -0.363281 0.960938 -0.363281 C 0.910156 -0.363281 0.910156 -0.414062 0.910156 -0.449219 C 0.925781 -0.699219 0.96875 -1.007812 1.023438 -1.316406 C 1.824219 -1.472656 2.496094 -2 2.496094 -2.621094 Z M 1.4375 -2.777344 C 1.621094 -2.777344 1.71875 -2.550781 1.71875 -2.417969 C 1.71875 -2.179688 1.5625 -1.621094 1.058594 -1.542969 C 1.183594 -2.195312 1.347656 -2.777344 1.4375 -2.777344 Z M 1.4375 -2.777344 "/></g></g></g><g fill="#ffffff" fill-opacity="1"><g transform="translate(55.920898, 49.622742)"><g><path d="M 1.015625 -0.257812 C 1.015625 -0.609375 1.226562 -1.621094 1.410156 -2.347656 C 1.621094 -2.453125 1.800781 -2.558594 1.964844 -2.558594 C 1.984375 -2.558594 2.0625 -2.558594 2.0625 -2.476562 C 2.0625 -2.3125 1.589844 -0.246094 1.589844 0.0273438 C 1.589844 0.125 1.632812 0.140625 1.648438 0.152344 C 1.753906 0.152344 2.179688 -0.0976562 2.523438 -0.0976562 C 2.574219 -0.0976562 2.585938 -0.21875 2.585938 -0.273438 C 2.585938 -0.898438 2.804688 -1.753906 2.945312 -2.371094 C 3.167969 -2.476562 3.359375 -2.585938 3.527344 -2.585938 C 3.546875 -2.585938 3.625 -2.585938 3.625 -2.503906 C 3.625 -2.375 3.273438 -1.078125 3.273438 -0.625 C 3.273438 -0.351562 3.414062 0.0898438 3.738281 0.0898438 C 3.941406 0.0898438 4.675781 -0.140625 4.675781 -0.378906 C 4.675781 -0.425781 4.667969 -0.492188 4.621094 -0.492188 C 4.535156 -0.492188 4.359375 -0.386719 4.269531 -0.386719 C 4.226562 -0.386719 4.207031 -0.40625 4.207031 -0.457031 C 4.207031 -1.164062 4.667969 -2.699219 4.667969 -3.050781 C 4.667969 -3.238281 4.410156 -3.289062 4.277344 -3.289062 C 3.941406 -3.289062 3.363281 -2.867188 3 -2.628906 C 3.035156 -2.796875 3.058594 -2.929688 3.058594 -3.023438 C 3.058594 -3.210938 2.804688 -3.261719 2.671875 -3.261719 C 2.339844 -3.261719 1.828125 -2.859375 1.480469 -2.613281 C 1.550781 -2.910156 1.613281 -3.121094 1.632812 -3.15625 C 1.632812 -3.210938 1.613281 -3.226562 1.527344 -3.226562 C 1.191406 -3.203125 0.917969 -3.0625 0.617188 -2.902344 C 0.511719 -2.847656 0.0078125 -0.257812 0 -0.0195312 C 0 0.167969 0.0703125 0.167969 0.0703125 0.167969 C 0.175781 0.167969 0.609375 -0.0859375 0.953125 -0.0859375 C 1.003906 -0.0859375 1.015625 -0.203125 1.015625 -0.257812 Z M 1.015625 -0.257812 "/></g></g></g><g fill="#ffffff" fill-opacity="1"><g transform="translate(60.807418, 49.622742)"><g><path d="M 2.011719 -3.070312 C 2.011719 -3.132812 2.011719 -3.167969 1.808594 -3.167969 C 1.023438 -3.167969 0.847656 -3.070312 0.566406 -2.65625 C 0.492188 -2.523438 0.363281 -2.328125 0.363281 -2.167969 C 0.363281 -1.65625 0.871094 -0.492188 0.871094 -0.378906 C 0.871094 -0.34375 0.855469 -0.316406 0.820312 -0.316406 C 0.554688 -0.316406 0.289062 -0.574219 0.140625 -0.574219 C 0.0546875 -0.574219 -0.0273438 0 -0.0273438 0.0273438 C -0.0273438 0.0976562 0.40625 0.152344 0.828125 0.152344 C 1.507812 0.152344 1.71875 -0.28125 1.71875 -0.566406 C 1.71875 -0.871094 1.101562 -2.300781 1.101562 -2.699219 C 1.101562 -2.75 1.136719 -2.753906 1.199219 -2.753906 C 1.359375 -2.753906 1.683594 -2.628906 1.851562 -2.628906 C 1.976562 -2.628906 2.011719 -3.015625 2.011719 -3.070312 Z M 2.011719 -3.070312 "/></g></g></g></svg>