<svg xmlns="http://www.w3.org/2000/svg" xmlns:xlink="http://www.w3.org/1999/xlink" width="100" zoomAndPan="magnify" viewBox="0 0 75 74.999997" height="100" preserveAspectRatio="xMidYMid meet" version="1.0"><defs><g/></defs><path fill="#6a0632" d="M 37.667969 64.210938 C 39.320312 62.109375 40.933594 60.796875 45.328125 60.648438 C 50.839844 60.457031 51.617188 62.382812 55.113281 64.945312 L 55.207031 65.015625 C 54.402344 60.75 55.484375 57.722656 59.332031 55.460938 C 63.230469 53.171875 66.742188 53.59375 70.921875 55.085938 C 65.824219 51.644531 65.046875 44.816406 71.105469 41.128906 C 72.769531 40.117188 74.757812 39.625 77.046875 39.460938 L 75 39.039062 C 73.160156 38.617188 71.773438 37.886719 70.507812 36.929688 C 68.847656 35.644531 66.878906 33.050781 67.332031 29.65625 C 67.765625 26.417969 69.582031 25.21875 71.554688 23.539062 C 69.261719 24.089844 67.882812 24.652344 65.097656 24.316406 C 59.949219 23.695312 54.703125 19.511719 56.550781 13.039062 C 45.28125 22.585938 39.722656 13.769531 37.667969 10.207031 C 35.617188 13.769531 30.054688 22.585938 18.789062 13.039062 C 20.636719 19.511719 15.390625 23.695312 10.238281 24.316406 C 7.453125 24.652344 6.078125 24.089844 3.78125 23.539062 C 5.753906 25.21875 7.570312 26.417969 8.003906 29.65625 C 8.460938 33.050781 6.492188 35.644531 4.828125 36.929688 C 3.5625 37.886719 2.179688 38.617188 0.339844 39.039062 L -1.710938 39.460938 C 0.582031 39.625 2.570312 40.117188 4.234375 41.128906 C 10.292969 44.816406 9.515625 51.644531 4.410156 55.085938 C 8.59375 53.59375 12.109375 53.171875 16.003906 55.460938 C 19.855469 57.722656 20.933594 60.75 20.132812 65.015625 L 20.226562 64.945312 C 23.722656 62.382812 24.5 60.457031 30.007812 60.648438 C 34.402344 60.796875 36.015625 62.109375 37.667969 64.210938 Z M 37.667969 64.210938 " fill-opacity="1" fill-rule="evenodd"/><path fill="#fed109" d="M 37.714844 62.917969 C 39.355469 60.835938 40.949219 59.535156 45.304688 59.390625 C 50.765625 59.203125 51.539062 61.109375 55 63.648438 L 55.097656 63.71875 C 54.296875 59.488281 55.367188 56.492188 59.183594 54.253906 C 63.042969 51.984375 66.527344 52.402344 70.671875 53.878906 C 65.617188 50.46875 64.84375 43.699219 70.847656 40.050781 C 72.496094 39.042969 74.46875 38.558594 76.742188 38.390625 L 74.710938 37.976562 C 72.886719 37.558594 71.515625 36.835938 70.257812 35.886719 C 68.613281 34.613281 66.660156 32.042969 67.113281 28.679688 C 67.542969 25.464844 69.34375 24.277344 71.296875 22.613281 C 69.023438 23.160156 67.660156 23.714844 64.898438 23.386719 C 59.792969 22.773438 54.59375 18.625 56.429688 12.214844 C 45.261719 21.675781 39.75 12.933594 37.714844 9.402344 C 35.679688 12.933594 30.175781 21.675781 19.003906 12.214844 C 20.835938 18.625 15.640625 22.773438 10.53125 23.386719 C 7.773438 23.714844 6.410156 23.160156 4.136719 22.613281 C 6.089844 24.277344 7.890625 25.464844 8.320312 28.679688 C 8.769531 32.042969 6.820312 34.613281 5.171875 35.886719 C 3.921875 36.835938 2.546875 37.558594 0.722656 37.976562 L -1.304688 38.390625 C 0.960938 38.558594 2.933594 39.042969 4.585938 40.050781 C 10.585938 43.699219 9.816406 50.46875 4.761719 53.878906 C 8.90625 52.402344 12.386719 51.984375 16.246094 54.253906 C 20.0625 56.492188 21.132812 59.488281 20.335938 63.71875 L 20.429688 63.648438 C 23.894531 61.109375 24.664062 59.203125 30.125 59.390625 C 34.480469 59.535156 36.078125 60.835938 37.714844 62.917969 Z M 37.714844 62.917969 " fill-opacity="1" fill-rule="evenodd"/><path fill="#6a0632" d="M 8.472656 12.988281 L 11.734375 19.816406 L 15.089844 18.109375 Z M 8.472656 12.988281 " fill-opacity="1" fill-rule="evenodd"/><path fill="#fad50a" d="M 8.148438 13.414062 L 11.410156 20.242188 L 14.765625 18.53125 Z M 8.148438 13.414062 " fill-opacity="1" fill-rule="evenodd"/><path fill="#6a0632" d="M 28.742188 11.441406 L 32.171875 10.421875 L 27.046875 0.125 Z M 28.742188 11.441406 " fill-opacity="1" fill-rule="evenodd"/><path fill="#fad50a" d="M 28.375 11.675781 L 31.800781 10.664062 L 26.679688 0.363281 Z M 28.375 11.675781 " fill-opacity="1" fill-rule="evenodd"/><path fill="#6a0632" d="M 25.042969 12.320312 L 26.976562 12.464844 L 25.714844 5.605469 Z M 25.042969 12.320312 " fill-opacity="1" fill-rule="evenodd"/><path fill="#fad50a" d="M 24.675781 12.558594 L 26.609375 12.703125 L 25.347656 5.84375 Z M 24.675781 12.558594 " fill-opacity="1" fill-rule="evenodd"/><path fill="#6a0632" d="M 50.777344 6.132812 L 46.136719 12.113281 L 49.183594 14.320312 Z M 50.777344 6.132812 " fill-opacity="1" fill-rule="evenodd"/><path fill="#fad50a" d="M 50.253906 6.035156 L 45.609375 12.015625 L 48.652344 14.226562 Z M 50.253906 6.035156 " fill-opacity="1" fill-rule="evenodd"/><path fill="#6a0632" d="M 59.308594 16.246094 L 61.855469 18.746094 L 68.449219 9.316406 Z M 59.308594 16.246094 " fill-opacity="1" fill-rule="evenodd"/><path fill="#fad50a" d="M 58.917969 16.039062 L 61.464844 18.539062 L 68.058594 9.109375 Z M 58.917969 16.039062 " fill-opacity="1" fill-rule="evenodd"/><path fill="#6a0632" d="M 63.390625 19.292969 L 64.925781 20.804688 L 68.90625 15.113281 Z M 63.390625 19.292969 " fill-opacity="1" fill-rule="evenodd"/><path fill="#fad50a" d="M 63.15625 19.171875 L 64.691406 20.679688 L 68.671875 14.984375 Z M 63.15625 19.171875 " fill-opacity="1" fill-rule="evenodd"/><path fill="#6a0632" d="M 8.570312 64.273438 L 11.832031 57.445312 L 15.1875 59.152344 Z M 8.570312 64.273438 " fill-opacity="1" fill-rule="evenodd"/><path fill="#fad50a" d="M 8.25 63.847656 L 11.511719 57.019531 L 14.871094 58.730469 Z M 8.25 63.847656 " fill-opacity="1" fill-rule="evenodd"/><path fill="#6a0632" d="M 30.535156 63.558594 L 33.960938 64.578125 L 28.84375 74.875 Z M 30.535156 63.558594 " fill-opacity="1" fill-rule="evenodd"/><path fill="#fad50a" d="M 30.167969 63.324219 L 33.59375 64.335938 L 28.472656 74.636719 Z M 30.167969 63.324219 " fill-opacity="1" fill-rule="evenodd"/><path fill="#6a0632" d="M 26.839844 62.679688 L 28.773438 62.535156 L 27.511719 69.394531 Z M 26.839844 62.679688 " fill-opacity="1" fill-rule="evenodd"/><path fill="#fad50a" d="M 26.472656 62.441406 L 28.40625 62.296875 L 27.140625 69.15625 Z M 26.472656 62.441406 " fill-opacity="1" fill-rule="evenodd"/><path fill="#6a0632" d="M 46.511719 70.507812 L 41.867188 64.523438 L 44.914062 62.316406 Z M 46.511719 70.507812 " fill-opacity="1" fill-rule="evenodd"/><path fill="#fad50a" d="M 45.984375 70.601562 L 41.34375 64.617188 L 44.390625 62.410156 Z M 45.984375 70.601562 " fill-opacity="1" fill-rule="evenodd"/><path fill="#6a0632" d="M 57.339844 59.875 L 59.886719 57.371094 L 66.480469 66.808594 Z M 57.339844 59.875 " fill-opacity="1" fill-rule="evenodd"/><path fill="#fad50a" d="M 56.953125 60.082031 L 59.5 57.578125 L 66.089844 67.015625 Z M 56.953125 60.082031 " fill-opacity="1" fill-rule="evenodd"/><path fill="#6a0632" d="M 61.425781 56.828125 L 62.960938 55.320312 L 66.9375 61.011719 Z M 61.425781 56.828125 " fill-opacity="1" fill-rule="evenodd"/><path fill="#fad50a" d="M 61.191406 56.953125 L 62.726562 55.441406 L 66.703125 61.132812 Z M 61.191406 56.953125 " fill-opacity="1" fill-rule="evenodd"/><g fill="#000000" fill-opacity="1"><g transform="translate(24.25262, 35.601275)"><g><path d="M 4.886719 -9.808594 C 5.296875 -9.855469 5.613281 -9.886719 6.023438 -9.886719 C 6.386719 -9.886719 6.734375 -9.871094 7.097656 -9.808594 C 7.285156 -9.886719 7.773438 -10.832031 7.773438 -11.070312 C 7.773438 -11.210938 7.632812 -11.226562 7.503906 -11.226562 C 6.6875 -11.226562 5.945312 -11.117188 5.21875 -10.832031 C 0.882812 -8.671875 0.566406 -5.691406 0.078125 -1.578125 C 0.078125 -0.441406 1.167969 0.773438 2.160156 1.070312 C 3.53125 0.882812 4.652344 0.425781 5.753906 -0.457031 C 7.144531 -1.5625 7.820312 -4.855469 7.820312 -5.882812 C 7.820312 -6.339844 7.144531 -7.523438 6.101562 -7.523438 C 5.410156 -7.523438 4.792969 -7.253906 4.195312 -6.984375 L 3.421875 -6.605469 C 3.800781 -7.820312 4.460938 -9.746094 4.886719 -9.808594 Z M 5.140625 -6.339844 C 5.359375 -6.339844 5.519531 -6.277344 5.519531 -6.101562 C 5.519531 -4.335938 4.777344 -2.398438 4.195312 -0.835938 C 3.925781 -0.253906 2.980469 0.347656 2.507812 0.347656 C 2.332031 0.347656 2.316406 0.109375 2.316406 -0.0625 C 2.316406 -3.753906 2.996094 -5.15625 3.152344 -5.691406 C 3.152344 -5.722656 3.167969 -5.769531 3.199219 -5.851562 C 4.132812 -6.164062 4.777344 -6.339844 5.140625 -6.339844 Z M 5.140625 -6.339844 "/></g></g></g><g fill="#000000" fill-opacity="1"><g transform="translate(32.387404, 35.601275)"><g><path d="M 6.386719 -11.464844 C 5.28125 -11.464844 1.78125 -10.058594 1.277344 -8.453125 C 0.773438 -6.890625 0.316406 -4.382812 0.316406 -2.726562 C 0.316406 -0.945312 1.546875 0.171875 2.980469 0.519531 C 3.027344 0.535156 3.089844 0.550781 3.136719 0.550781 C 6.339844 -0.425781 6.890625 -2.082031 7.410156 -3.546875 C 7.980469 -5.738281 8.261719 -7.144531 8.261719 -9.367188 C 8.261719 -10.089844 7.128906 -11.464844 6.386719 -11.464844 Z M 2.539062 -2.222656 L 3.214844 -6.8125 C 3.453125 -8.390625 3.941406 -9.855469 4.289062 -9.933594 C 4.824219 -10.058594 5.34375 -10.140625 5.867188 -10.140625 C 6.117188 -10.140625 6.117188 -9.855469 6.117188 -9.601562 C 6.023438 -8.199219 5.804688 -6.464844 5.03125 -3.234375 C 4.714844 -1.921875 4.460938 -0.742188 3.183594 -0.203125 C 2.695312 -0.851562 2.539062 -1.496094 2.539062 -2.222656 Z M 2.539062 -2.222656 "/></g></g></g><g fill="#000000" fill-opacity="1"><g transform="translate(40.648303, 35.601275)"><g><path d="M 5.582031 0.078125 C 5.898438 -0.347656 6.464844 -1.183594 6.464844 -1.449219 C 6.464844 -1.515625 6.449219 -1.546875 6.417969 -1.546875 C 6.402344 -1.546875 6.386719 -1.546875 6.355469 -1.53125 C 5.535156 -1.121094 4.667969 -0.488281 3.722656 -0.488281 L 2.460938 -0.488281 C 2.316406 -0.488281 2.300781 -0.566406 2.300781 -0.597656 C 2.300781 -0.664062 3.121094 -2.035156 3.40625 -2.445312 C 3.925781 -3.296875 6.921875 -8.324219 6.921875 -9.160156 C 6.921875 -9.746094 5.929688 -11.289062 5.328125 -11.449219 C 5.125 -11.511719 4.871094 -11.527344 4.621094 -11.527344 C 3.691406 -11.527344 2.585938 -11.226562 2.222656 -11.148438 L 2.160156 -11.101562 C 2.003906 -10.992188 1.277344 -9.382812 1.277344 -9.320312 C 1.277344 -9.191406 1.277344 -9.160156 1.355469 -9.160156 C 1.449219 -9.160156 3.40625 -10.375 4.792969 -10.375 C 5.015625 -10.375 5.015625 -10.296875 5.015625 -10.265625 C 3.328125 -5.660156 1.277344 -3.421875 -0.945312 0.238281 C -0.976562 0.300781 -0.992188 0.347656 -0.992188 0.378906 C -0.992188 0.457031 -0.929688 0.503906 -0.867188 0.503906 L 1.355469 0.613281 L 3.878906 0.613281 C 4.445312 0.613281 5.21875 0.582031 5.582031 0.078125 Z M 5.582031 0.078125 "/></g></g></g><g fill="#000000" fill-opacity="1"><g transform="translate(47.57611, 35.601275)"><g/></g></g><g fill="#000000" fill-opacity="1"><g transform="translate(9.117455, 49.622755)"><g><path d="M 0.0546875 0.0625 C 0.0546875 0.238281 0.835938 0.300781 1.144531 0.300781 C 1.746094 0.300781 2.179688 0.253906 2.53125 -0.625 C 2.542969 -0.652344 2.542969 -0.742188 2.542969 -0.785156 C 2.542969 -1.464844 1.695312 -3.871094 1.695312 -4.320312 C 1.695312 -4.429688 1.738281 -4.507812 1.859375 -4.527344 C 2.109375 -4.464844 2.542969 -4.234375 2.683594 -4.234375 C 2.824219 -4.234375 2.839844 -4.789062 2.839844 -4.949219 C 2.839844 -5.035156 2.347656 -5.035156 2.195312 -5.035156 C 1.921875 -5.035156 1.648438 -5 1.417969 -4.867188 C 1.429688 -4.871094 0.652344 -4.261719 0.652344 -3.945312 C 0.652344 -2.945312 1.464844 -0.792969 1.464844 -0.386719 C 1.464844 -0.363281 1.464844 -0.21875 1.375 -0.21875 C 1.007812 -0.21875 0.734375 -0.386719 0.394531 -0.539062 C 0.316406 -0.539062 0.0546875 0.0195312 0.0546875 0.0625 Z M 0.0546875 0.0625 "/></g></g></g><g fill="#000000" fill-opacity="1"><g transform="translate(12.04095, 49.622755)"><g><path d="M 0.238281 -2.796875 C 0.238281 -2.734375 0.265625 -2.679688 0.300781 -2.679688 C 0.359375 -2.679688 0.441406 -2.699219 0.566406 -2.734375 C 0.363281 -1.789062 0.152344 -0.5625 0.152344 -0.46875 C 0.152344 -0.203125 0.324219 0.195312 0.53125 0.195312 C 0.847656 0.195312 1.726562 -0.359375 1.730469 -0.421875 L 1.753906 -0.511719 C 1.753906 -0.589844 1.738281 -0.609375 1.710938 -0.609375 C 1.648438 -0.609375 1.28125 -0.414062 1.144531 -0.414062 C 1.101562 -0.414062 1.109375 -0.476562 1.109375 -0.503906 C 1.113281 -0.765625 1.289062 -1.835938 1.507812 -2.839844 L 1.757812 -2.839844 C 1.871094 -2.839844 2 -3.160156 2 -3.253906 C 2 -3.296875 1.949219 -3.300781 1.90625 -3.300781 C 1.851562 -3.300781 1.738281 -3.28125 1.597656 -3.253906 C 1.710938 -3.722656 1.835938 -4.144531 1.949219 -4.421875 C 1.941406 -4.472656 1.871094 -4.488281 1.835938 -4.488281 C 1.703125 -4.488281 1.066406 -3.945312 0.871094 -3.800781 C 0.8125 -3.730469 0.730469 -3.441406 0.636719 -3.070312 C 0.53125 -3.058594 0.441406 -3.050781 0.359375 -3.050781 C 0.265625 -3.050781 0.246094 -2.867188 0.238281 -2.796875 Z M 0.238281 -2.796875 "/></g></g></g><g fill="#000000" fill-opacity="1"><g transform="translate(14.088102, 49.622755)"><g><path d="M 0.96875 -0.257812 C 0.96875 -0.847656 1.242188 -2.046875 1.289062 -2.195312 C 1.515625 -2.195312 1.667969 -2.160156 1.800781 -2.160156 C 1.878906 -2.160156 1.90625 -2.1875 1.921875 -2.25 C 2 -2.550781 2.144531 -3.273438 2.152344 -3.273438 C 2.152344 -3.300781 2.109375 -3.316406 2.089844 -3.316406 C 2.003906 -3.316406 1.710938 -2.945312 1.613281 -2.839844 C 1.507812 -2.726562 1.402344 -2.558594 1.359375 -2.550781 C 1.417969 -2.789062 1.515625 -3.160156 1.515625 -3.238281 C 1.515625 -3.28125 1.480469 -3.28125 1.464844 -3.28125 C 1.210938 -3.28125 0.800781 -3.0625 0.582031 -2.910156 C 0.363281 -2.707031 0 -0.324219 0 -0.0195312 C 0 0.167969 0.0703125 0.167969 0.0703125 0.167969 C 0.175781 0.167969 0.5625 -0.0859375 0.90625 -0.0859375 C 0.953125 -0.0859375 0.96875 -0.203125 0.96875 -0.257812 Z M 0.96875 -0.257812 "/></g></g></g><g fill="#000000" fill-opacity="1"><g transform="translate(16.100203, 49.622755)"><g><path d="M 2.132812 -2.761719 C 1.976562 -2.59375 1.765625 -1.484375 1.683594 -0.875 C 1.507812 -0.742188 1.199219 -0.492188 1.050781 -0.492188 C 1.03125 -0.492188 1.003906 -0.492188 1.003906 -0.527344 C 1.003906 -1.464844 1.207031 -2.089844 1.445312 -2.699219 C 1.464844 -2.75 1.492188 -2.816406 1.5625 -2.816406 C 1.683594 -2.816406 1.835938 -2.789062 2.019531 -2.785156 C 2.074219 -2.816406 2.171875 -3.070312 2.171875 -3.140625 C 2.171875 -3.191406 2.082031 -3.191406 2.039062 -3.191406 C 1.800781 -3.191406 0.96875 -2.9375 0.644531 -2.648438 C 0.203125 -2.257812 0.0703125 -1.109375 0.0703125 -0.625 C 0.0703125 -0.324219 0.308594 0.152344 0.679688 0.152344 C 0.882812 0.152344 1.332031 -0.351562 1.648438 -0.632812 L 1.648438 -0.527344 C 1.648438 -0.257812 1.792969 0.167969 2.019531 0.167969 C 2.269531 0.167969 2.957031 -0.308594 2.972656 -0.371094 C 2.980469 -0.40625 2.988281 -0.460938 2.988281 -0.492188 C 2.988281 -0.546875 2.988281 -0.5625 2.957031 -0.5625 C 2.894531 -0.5625 2.777344 -0.441406 2.636719 -0.441406 C 2.601562 -0.441406 2.601562 -0.476562 2.601562 -0.511719 C 2.601562 -0.804688 2.886719 -2.488281 3.125 -3.078125 C 3.125 -3.125 3.058594 -3.140625 3.023438 -3.140625 C 2.886719 -3.140625 2.320312 -2.910156 2.132812 -2.761719 Z M 2.132812 -2.761719 "/></g></g></g><g fill="#000000" fill-opacity="1"><g transform="translate(19.367231, 49.622755)"><g><path d="M 0.238281 -2.796875 C 0.238281 -2.734375 0.265625 -2.679688 0.300781 -2.679688 C 0.359375 -2.679688 0.441406 -2.699219 0.566406 -2.734375 C 0.363281 -1.789062 0.152344 -0.5625 0.152344 -0.46875 C 0.152344 -0.203125 0.324219 0.195312 0.53125 0.195312 C 0.847656 0.195312 1.726562 -0.359375 1.730469 -0.421875 L 1.753906 -0.511719 C 1.753906 -0.589844 1.738281 -0.609375 1.710938 -0.609375 C 1.648438 -0.609375 1.28125 -0.414062 1.144531 -0.414062 C 1.101562 -0.414062 1.109375 -0.476562 1.109375 -0.503906 C 1.113281 -0.765625 1.289062 -1.835938 1.507812 -2.839844 L 1.757812 -2.839844 C 1.871094 -2.839844 2 -3.160156 2 -3.253906 C 2 -3.296875 1.949219 -3.300781 1.90625 -3.300781 C 1.851562 -3.300781 1.738281 -3.28125 1.597656 -3.253906 C 1.710938 -3.722656 1.835938 -4.144531 1.949219 -4.421875 C 1.941406 -4.472656 1.871094 -4.488281 1.835938 -4.488281 C 1.703125 -4.488281 1.066406 -3.945312 0.871094 -3.800781 C 0.8125 -3.730469 0.730469 -3.441406 0.636719 -3.070312 C 0.53125 -3.058594 0.441406 -3.050781 0.359375 -3.050781 C 0.265625 -3.050781 0.246094 -2.867188 0.238281 -2.796875 Z M 0.238281 -2.796875 "/></g></g></g><g fill="#000000" fill-opacity="1"><g transform="translate(21.414384, 49.622755)"><g><path d="M 2.132812 -2.761719 C 1.976562 -2.59375 1.765625 -1.484375 1.683594 -0.875 C 1.507812 -0.742188 1.199219 -0.492188 1.050781 -0.492188 C 1.03125 -0.492188 1.003906 -0.492188 1.003906 -0.527344 C 1.003906 -1.464844 1.207031 -2.089844 1.445312 -2.699219 C 1.464844 -2.75 1.492188 -2.816406 1.5625 -2.816406 C 1.683594 -2.816406 1.835938 -2.789062 2.019531 -2.785156 C 2.074219 -2.816406 2.171875 -3.070312 2.171875 -3.140625 C 2.171875 -3.191406 2.082031 -3.191406 2.039062 -3.191406 C 1.800781 -3.191406 0.96875 -2.9375 0.644531 -2.648438 C 0.203125 -2.257812 0.0703125 -1.109375 0.0703125 -0.625 C 0.0703125 -0.324219 0.308594 0.152344 0.679688 0.152344 C 0.882812 0.152344 1.332031 -0.351562 1.648438 -0.632812 L 1.648438 -0.527344 C 1.648438 -0.257812 1.792969 0.167969 2.019531 0.167969 C 2.269531 0.167969 2.957031 -0.308594 2.972656 -0.371094 C 2.980469 -0.40625 2.988281 -0.460938 2.988281 -0.492188 C 2.988281 -0.546875 2.988281 -0.5625 2.957031 -0.5625 C 2.894531 -0.5625 2.777344 -0.441406 2.636719 -0.441406 C 2.601562 -0.441406 2.601562 -0.476562 2.601562 -0.511719 C 2.601562 -0.804688 2.886719 -2.488281 3.125 -3.078125 C 3.125 -3.125 3.058594 -3.140625 3.023438 -3.140625 C 2.886719 -3.140625 2.320312 -2.910156 2.132812 -2.761719 Z M 2.132812 -2.761719 "/></g></g></g><g fill="#000000" fill-opacity="1"><g transform="translate(24.681413, 49.622755)"><g><path d="M 2.011719 -3.070312 C 2.011719 -3.132812 2.011719 -3.167969 1.808594 -3.167969 C 1.023438 -3.167969 0.847656 -3.070312 0.566406 -2.65625 C 0.492188 -2.523438 0.363281 -2.328125 0.363281 -2.167969 C 0.363281 -1.65625 0.871094 -0.492188 0.871094 -0.378906 C 0.871094 -0.34375 0.855469 -0.316406 0.820312 -0.316406 C 0.554688 -0.316406 0.289062 -0.574219 0.140625 -0.574219 C 0.0546875 -0.574219 -0.0273438 0 -0.0273438 0.0273438 C -0.0273438 0.0976562 0.40625 0.152344 0.828125 0.152344 C 1.507812 0.152344 1.71875 -0.28125 1.71875 -0.566406 C 1.71875 -0.871094 1.101562 -2.300781 1.101562 -2.699219 C 1.101562 -2.75 1.136719 -2.753906 1.199219 -2.753906 C 1.359375 -2.753906 1.683594 -2.628906 1.851562 -2.628906 C 1.976562 -2.628906 2.011719 -3.015625 2.011719 -3.070312 Z M 2.011719 -3.070312 "/></g></g></g><g fill="#000000" fill-opacity="1"><g transform="translate(26.784647, 49.622755)"><g><path d="M 1.851562 -0.1875 C 1.933594 -0.230469 2.039062 -0.421875 2.039062 -0.511719 C 2.039062 -0.539062 2.027344 -0.5625 2 -0.5625 C 1.976562 -0.5625 1.957031 -0.554688 1.929688 -0.53125 C 1.738281 -0.414062 1.207031 -0.257812 1.050781 -0.257812 C 1.03125 -0.257812 1.003906 -0.257812 1.003906 -0.292969 C 1.003906 -1.234375 1.207031 -2.089844 1.445312 -2.699219 C 1.464844 -2.75 1.492188 -2.816406 1.5625 -2.816406 C 1.683594 -2.816406 1.941406 -2.726562 2.125 -2.71875 C 2.179688 -2.753906 2.269531 -3.070312 2.269531 -3.140625 C 2.269531 -3.191406 2.179688 -3.191406 2.136719 -3.191406 C 1.691406 -3.191406 0.96875 -2.9375 0.644531 -2.648438 C 0.203125 -2.257812 0.0703125 -1.109375 0.0703125 -0.625 C 0.0703125 -0.324219 0.308594 0.152344 0.679688 0.152344 C 0.90625 0.152344 1.421875 0.0273438 1.851562 -0.1875 Z M 1.851562 -0.1875 "/></g></g></g><g fill="#000000" fill-opacity="1"><g transform="translate(29.049129, 49.622755)"><g><path d="M 0.96875 -0.257812 C 0.96875 -0.847656 1.242188 -2.046875 1.289062 -2.195312 C 1.515625 -2.195312 1.667969 -2.160156 1.800781 -2.160156 C 1.878906 -2.160156 1.90625 -2.1875 1.921875 -2.25 C 2 -2.550781 2.144531 -3.273438 2.152344 -3.273438 C 2.152344 -3.300781 2.109375 -3.316406 2.089844 -3.316406 C 2.003906 -3.316406 1.710938 -2.945312 1.613281 -2.839844 C 1.507812 -2.726562 1.402344 -2.558594 1.359375 -2.550781 C 1.417969 -2.789062 1.515625 -3.160156 1.515625 -3.238281 C 1.515625 -3.28125 1.480469 -3.28125 1.464844 -3.28125 C 1.210938 -3.28125 0.800781 -3.0625 0.582031 -2.910156 C 0.363281 -2.707031 0 -0.324219 0 -0.0195312 C 0 0.167969 0.0703125 0.167969 0.0703125 0.167969 C 0.175781 0.167969 0.5625 -0.0859375 0.90625 -0.0859375 C 0.953125 -0.0859375 0.96875 -0.203125 0.96875 -0.257812 Z M 0.96875 -0.257812 "/></g></g></g><g fill="#000000" fill-opacity="1"><g transform="translate(31.06123, 49.622755)"><g><path d="M 2.132812 -2.761719 C 1.976562 -2.59375 1.765625 -1.484375 1.683594 -0.875 C 1.507812 -0.742188 1.199219 -0.492188 1.050781 -0.492188 C 1.03125 -0.492188 1.003906 -0.492188 1.003906 -0.527344 C 1.003906 -1.464844 1.207031 -2.089844 1.445312 -2.699219 C 1.464844 -2.75 1.492188 -2.816406 1.5625 -2.816406 C 1.683594 -2.816406 1.835938 -2.789062 2.019531 -2.785156 C 2.074219 -2.816406 2.171875 -3.070312 2.171875 -3.140625 C 2.171875 -3.191406 2.082031 -3.191406 2.039062 -3.191406 C 1.800781 -3.191406 0.96875 -2.9375 0.644531 -2.648438 C 0.203125 -2.257812 0.0703125 -1.109375 0.0703125 -0.625 C 0.0703125 -0.324219 0.308594 0.152344 0.679688 0.152344 C 0.882812 0.152344 1.332031 -0.351562 1.648438 -0.632812 L 1.648438 -0.527344 C 1.648438 -0.257812 1.792969 0.167969 2.019531 0.167969 C 2.269531 0.167969 2.957031 -0.308594 2.972656 -0.371094 C 2.980469 -0.40625 2.988281 -0.460938 2.988281 -0.492188 C 2.988281 -0.546875 2.988281 -0.5625 2.957031 -0.5625 C 2.894531 -0.5625 2.777344 -0.441406 2.636719 -0.441406 C 2.601562 -0.441406 2.601562 -0.476562 2.601562 -0.511719 C 2.601562 -0.804688 2.886719 -2.488281 3.125 -3.078125 C 3.125 -3.125 3.058594 -3.140625 3.023438 -3.140625 C 2.886719 -3.140625 2.320312 -2.910156 2.132812 -2.761719 Z M 2.132812 -2.761719 "/></g></g></g><g fill="#000000" fill-opacity="1"><g transform="translate(34.328258, 49.622755)"><g><path d="M 0.238281 -2.796875 C 0.238281 -2.734375 0.265625 -2.679688 0.300781 -2.679688 C 0.359375 -2.679688 0.441406 -2.699219 0.566406 -2.734375 C 0.363281 -1.789062 0.152344 -0.5625 0.152344 -0.46875 C 0.152344 -0.203125 0.324219 0.195312 0.53125 0.195312 C 0.847656 0.195312 1.726562 -0.359375 1.730469 -0.421875 L 1.753906 -0.511719 C 1.753906 -0.589844 1.738281 -0.609375 1.710938 -0.609375 C 1.648438 -0.609375 1.28125 -0.414062 1.144531 -0.414062 C 1.101562 -0.414062 1.109375 -0.476562 1.109375 -0.503906 C 1.113281 -0.765625 1.289062 -1.835938 1.507812 -2.839844 L 1.757812 -2.839844 C 1.871094 -2.839844 2 -3.160156 2 -3.253906 C 2 -3.296875 1.949219 -3.300781 1.90625 -3.300781 C 1.851562 -3.300781 1.738281 -3.28125 1.597656 -3.253906 C 1.710938 -3.722656 1.835938 -4.144531 1.949219 -4.421875 C 1.941406 -4.472656 1.871094 -4.488281 1.835938 -4.488281 C 1.703125 -4.488281 1.066406 -3.945312 0.871094 -3.800781 C 0.8125 -3.730469 0.730469 -3.441406 0.636719 -3.070312 C 0.53125 -3.058594 0.441406 -3.050781 0.359375 -3.050781 C 0.265625 -3.050781 0.246094 -2.867188 0.238281 -2.796875 Z M 0.238281 -2.796875 "/></g></g></g><g fill="#000000" fill-opacity="1"><g transform="translate(36.375411, 49.622755)"><g><path d="M 1.851562 -0.1875 C 1.933594 -0.230469 2.039062 -0.421875 2.039062 -0.511719 C 2.039062 -0.539062 2.027344 -0.5625 2 -0.5625 C 1.976562 -0.5625 1.957031 -0.554688 1.929688 -0.53125 C 1.738281 -0.414062 1.207031 -0.257812 1.050781 -0.257812 C 1.03125 -0.257812 1.003906 -0.257812 1.003906 -0.292969 C 1.003906 -1.234375 1.207031 -2.089844 1.445312 -2.699219 C 1.464844 -2.75 1.492188 -2.816406 1.5625 -2.816406 C 1.683594 -2.816406 1.941406 -2.726562 2.125 -2.71875 C 2.179688 -2.753906 2.269531 -3.070312 2.269531 -3.140625 C 2.269531 -3.191406 2.179688 -3.191406 2.136719 -3.191406 C 1.691406 -3.191406 0.96875 -2.9375 0.644531 -2.648438 C 0.203125 -2.257812 0.0703125 -1.109375 0.0703125 -0.625 C 0.0703125 -0.324219 0.308594 0.152344 0.679688 0.152344 C 0.90625 0.152344 1.421875 0.0273438 1.851562 -0.1875 Z M 1.851562 -0.1875 "/></g></g></g><g fill="#000000" fill-opacity="1"><g transform="translate(38.639893, 49.622755)"><g><path d="M 1.015625 -0.265625 C 1.015625 -0.519531 1.183594 -1.464844 1.386719 -2.460938 C 1.632812 -2.574219 1.921875 -2.683594 2.082031 -2.683594 C 2.101562 -2.683594 2.179688 -2.683594 2.179688 -2.601562 C 2.179688 -2.398438 1.808594 -1.128906 1.808594 -0.601562 C 1.808594 -0.328125 1.949219 0.113281 2.269531 0.113281 C 2.476562 0.113281 3.238281 -0.160156 3.238281 -0.398438 C 3.238281 -0.449219 3.203125 -0.46875 3.15625 -0.46875 C 3.070312 -0.46875 2.894531 -0.363281 2.804688 -0.363281 C 2.761719 -0.363281 2.742188 -0.386719 2.742188 -0.433594 C 2.742188 -1.144531 3.203125 -2.679688 3.203125 -3.027344 C 3.203125 -3.21875 2.945312 -3.265625 2.8125 -3.265625 C 2.445312 -3.265625 1.808594 -2.921875 1.4375 -2.707031 C 1.667969 -3.785156 1.929688 -4.859375 2.046875 -5.089844 C 2.046875 -5.144531 2.027344 -5.160156 1.941406 -5.160156 C 1.605469 -5.140625 1.113281 -4.984375 1.050781 -4.867188 C 0.800781 -4.390625 0.0078125 -0.265625 0 -0.0273438 C 0 0.160156 0.0703125 0.160156 0.0703125 0.160156 C 0.175781 0.160156 0.609375 -0.0898438 0.953125 -0.0898438 C 1.003906 -0.0898438 1.015625 -0.210938 1.015625 -0.265625 Z M 1.015625 -0.265625 "/></g></g></g><g fill="#000000" fill-opacity="1"><g transform="translate(42.089199, 49.622755)"><g/></g></g><g fill="#000000" fill-opacity="1"><g transform="translate(43.491361, 49.622755)"><g><path d="M -0.132812 1.507812 C -0.132812 1.589844 -0.121094 1.589844 -0.0507812 1.589844 C 0.0078125 1.589844 0.335938 1.277344 0.730469 1.109375 C 0.828125 1.066406 0.925781 1.042969 0.925781 0.917969 C 0.9375 0.679688 0.96875 0.421875 1.003906 0.152344 L 1.179688 0.152344 C 1.605469 0.152344 2.054688 0.121094 2.453125 -0.273438 C 2.875 -0.6875 3.167969 -2.082031 3.167969 -2.566406 C 3.167969 -2.867188 2.839844 -3.230469 2.46875 -3.230469 C 2.277344 -3.230469 1.835938 -2.992188 1.515625 -2.761719 C 1.542969 -2.894531 1.5625 -3.015625 1.589844 -3.125 C 1.589844 -3.175781 1.5625 -3.21875 1.515625 -3.21875 C 1.304688 -3.21875 0.6875 -3.050781 0.636719 -2.894531 C 0.308594 -1.933594 -0.132812 0.972656 -0.132812 1.507812 Z M 1.472656 -2.550781 C 1.660156 -2.636719 1.933594 -2.71875 2.167969 -2.71875 C 2.1875 -2.71875 2.214844 -2.71875 2.214844 -2.683594 C 2.214844 -1.746094 1.933594 -0.898438 1.683594 -0.292969 C 1.613281 -0.132812 1.28125 -0.105469 1.03125 -0.0898438 C 1.148438 -0.925781 1.324219 -1.835938 1.472656 -2.550781 Z M 1.472656 -2.550781 "/></g></g></g><g fill="#000000" fill-opacity="1"><g transform="translate(46.716322, 49.622755)"><g><path d="M 0.96875 -0.257812 C 0.96875 -0.847656 1.242188 -2.046875 1.289062 -2.195312 C 1.515625 -2.195312 1.667969 -2.160156 1.800781 -2.160156 C 1.878906 -2.160156 1.90625 -2.1875 1.921875 -2.25 C 2 -2.550781 2.144531 -3.273438 2.152344 -3.273438 C 2.152344 -3.300781 2.109375 -3.316406 2.089844 -3.316406 C 2.003906 -3.316406 1.710938 -2.945312 1.613281 -2.839844 C 1.507812 -2.726562 1.402344 -2.558594 1.359375 -2.550781 C 1.417969 -2.789062 1.515625 -3.160156 1.515625 -3.238281 C 1.515625 -3.28125 1.480469 -3.28125 1.464844 -3.28125 C 1.210938 -3.28125 0.800781 -3.0625 0.582031 -2.910156 C 0.363281 -2.707031 0 -0.324219 0 -0.0195312 C 0 0.167969 0.0703125 0.167969 0.0703125 0.167969 C 0.175781 0.167969 0.5625 -0.0859375 0.90625 -0.0859375 C 0.953125 -0.0859375 0.96875 -0.203125 0.96875 -0.257812 Z M 0.96875 -0.257812 "/></g></g></g><g fill="#000000" fill-opacity="1"><g transform="translate(48.728422, 49.622755)"><g><path d="M 0 -1.148438 C 0 -0.511719 0.371094 0.152344 0.765625 0.152344 C 2.621094 0.152344 2.902344 -1.921875 2.902344 -2.453125 C 2.902344 -2.734375 2.40625 -3.191406 2.125 -3.191406 C 1.585938 -3.191406 0.34375 -2.636719 0.210938 -2.242188 C 0.0429688 -1.730469 0 -1.589844 0 -1.148438 Z M 1.921875 -2.753906 C 1.964844 -2.753906 1.976562 -2.726562 1.976562 -2.699219 C 1.976562 -2.152344 1.726562 -1.21875 1.394531 -0.386719 C 1.359375 -0.289062 1.253906 -0.0976562 1.121094 -0.0976562 C 0.925781 -0.0976562 0.898438 -0.792969 0.898438 -0.8125 C 0.90625 -1.359375 1.109375 -2.609375 1.417969 -2.679688 C 1.605469 -2.71875 1.757812 -2.753906 1.921875 -2.753906 Z M 1.921875 -2.753906 "/></g></g></g><g fill="#000000" fill-opacity="1"><g transform="translate(51.66594, 49.622755)"><g><path d="M 1.894531 -5.160156 C 1.894531 -5.230469 1.84375 -5.242188 1.808594 -5.242188 C 1.675781 -5.242188 1.464844 -5.152344 1.316406 -5.117188 C 0.90625 -5.011719 0.847656 -4.816406 0.769531 -4.550781 C 0.6875 -4.136719 0.0429688 -2.269531 0.0429688 -1.003906 C 0.0429688 -0.539062 0.386719 0.152344 0.769531 0.152344 C 2.203125 0.152344 2.875 -1.484375 2.875 -2.714844 C 2.875 -2.988281 2.46875 -3.261719 2.214844 -3.261719 C 1.984375 -3.261719 1.570312 -3.0625 1.296875 -2.9375 C 1.554688 -4.011719 1.859375 -4.90625 1.894531 -5.160156 Z M 1.859375 -2.796875 C 1.863281 -2.785156 1.871094 -2.753906 1.871094 -2.71875 C 1.871094 -2.300781 1.519531 -0.210938 1.007812 -0.210938 C 0.996094 -0.210938 0.972656 -0.210938 0.960938 -0.21875 C 0.9375 -0.222656 0.925781 -0.257812 0.925781 -0.28125 C 0.925781 -1.039062 1.066406 -1.878906 1.234375 -2.648438 C 1.570312 -2.769531 1.800781 -2.796875 1.859375 -2.796875 Z M 1.859375 -2.796875 "/></g></g></g><g fill="#000000" fill-opacity="1"><g transform="translate(54.561399, 49.622755)"><g><path d="M 1.074219 -4.886719 C 0.882812 -4.675781 0 -0.820312 0 -0.503906 C 0 -0.238281 0.148438 0.1875 0.371094 0.1875 C 0.6875 0.1875 1.71875 -0.460938 1.730469 -0.527344 C 1.738281 -0.5625 1.746094 -0.617188 1.746094 -0.644531 C 1.746094 -0.699219 1.746094 -0.714844 1.71875 -0.714844 C 1.65625 -0.714844 1.128906 -0.421875 0.988281 -0.421875 C 0.953125 -0.421875 0.953125 -0.457031 0.953125 -0.492188 C 0.953125 -0.785156 1.632812 -4.199219 2.03125 -5.144531 C 2.03125 -5.195312 1.964844 -5.207031 1.929688 -5.207031 C 1.792969 -5.207031 1.261719 -5.035156 1.074219 -4.886719 Z M 1.074219 -4.886719 "/></g></g></g><g fill="#000000" fill-opacity="1"><g transform="translate(56.433281, 49.622755)"><g><path d="M 2.496094 -2.621094 C 2.496094 -2.894531 2.304688 -3.195312 2 -3.195312 C 1.5 -3.195312 0.835938 -2.847656 0.433594 -2.503906 C 0.203125 -2.257812 0 -0.882812 0 -0.601562 C 0 -0.316406 0.292969 0.152344 0.617188 0.152344 C 1.164062 0.152344 1.964844 -0.421875 1.96875 -0.425781 C 2.066406 -0.527344 2.136719 -0.671875 2.136719 -0.757812 C 2.136719 -0.800781 2.109375 -0.8125 2.082031 -0.8125 C 2.027344 -0.8125 1.5 -0.363281 0.960938 -0.363281 C 0.910156 -0.363281 0.910156 -0.414062 0.910156 -0.449219 C 0.925781 -0.699219 0.96875 -1.007812 1.023438 -1.316406 C 1.824219 -1.472656 2.496094 -2 2.496094 -2.621094 Z M 1.4375 -2.777344 C 1.621094 -2.777344 1.71875 -2.550781 1.71875 -2.417969 C 1.71875 -2.179688 1.5625 -1.621094 1.058594 -1.542969 C 1.183594 -2.195312 1.347656 -2.777344 1.4375 -2.777344 Z M 1.4375 -2.777344 "/></g></g></g><g fill="#000000" fill-opacity="1"><g transform="translate(58.887056, 49.622755)"><g><path d="M 1.015625 -0.257812 C 1.015625 -0.609375 1.226562 -1.621094 1.410156 -2.347656 C 1.621094 -2.453125 1.800781 -2.558594 1.964844 -2.558594 C 1.984375 -2.558594 2.0625 -2.558594 2.0625 -2.476562 C 2.0625 -2.3125 1.589844 -0.246094 1.589844 0.0273438 C 1.589844 0.125 1.632812 0.140625 1.648438 0.152344 C 1.753906 0.152344 2.179688 -0.0976562 2.523438 -0.0976562 C 2.574219 -0.0976562 2.585938 -0.21875 2.585938 -0.273438 C 2.585938 -0.898438 2.804688 -1.753906 2.945312 -2.371094 C 3.167969 -2.476562 3.359375 -2.585938 3.527344 -2.585938 C 3.546875 -2.585938 3.625 -2.585938 3.625 -2.503906 C 3.625 -2.375 3.273438 -1.078125 3.273438 -0.625 C 3.273438 -0.351562 3.414062 0.0898438 3.738281 0.0898438 C 3.941406 0.0898438 4.675781 -0.140625 4.675781 -0.378906 C 4.675781 -0.425781 4.667969 -0.492188 4.621094 -0.492188 C 4.535156 -0.492188 4.359375 -0.386719 4.269531 -0.386719 C 4.226562 -0.386719 4.207031 -0.40625 4.207031 -0.457031 C 4.207031 -1.164062 4.667969 -2.699219 4.667969 -3.050781 C 4.667969 -3.238281 4.410156 -3.289062 4.277344 -3.289062 C 3.941406 -3.289062 3.363281 -2.867188 3 -2.628906 C 3.035156 -2.796875 3.058594 -2.929688 3.058594 -3.023438 C 3.058594 -3.210938 2.804688 -3.261719 2.671875 -3.261719 C 2.339844 -3.261719 1.828125 -2.859375 1.480469 -2.613281 C 1.550781 -2.910156 1.613281 -3.121094 1.632812 -3.15625 C 1.632812 -3.210938 1.613281 -3.226562 1.527344 -3.226562 C 1.191406 -3.203125 0.917969 -3.0625 0.617188 -2.902344 C 0.511719 -2.847656 0.0078125 -0.257812 0 -0.0195312 C 0 0.167969 0.0703125 0.167969 0.0703125 0.167969 C 0.175781 0.167969 0.609375 -0.0859375 0.953125 -0.0859375 C 1.003906 -0.0859375 1.015625 -0.203125 1.015625 -0.257812 Z M 1.015625 -0.257812 "/></g></g></g><g fill="#000000" fill-opacity="1"><g transform="translate(63.773577, 49.622755)"><g><path d="M 2.011719 -3.070312 C 2.011719 -3.132812 2.011719 -3.167969 1.808594 -3.167969 C 1.023438 -3.167969 0.847656 -3.070312 0.566406 -2.65625 C 0.492188 -2.523438 0.363281 -2.328125 0.363281 -2.167969 C 0.363281 -1.65625 0.871094 -0.492188 0.871094 -0.378906 C 0.871094 -0.34375 0.855469 -0.316406 0.820312 -0.316406 C 0.554688 -0.316406 0.289062 -0.574219 0.140625 -0.574219 C 0.0546875 -0.574219 -0.0273438 0 -0.0273438 0.0273438 C -0.0273438 0.0976562 0.40625 0.152344 0.828125 0.152344 C 1.507812 0.152344 1.71875 -0.28125 1.71875 -0.566406 C 1.71875 -0.871094 1.101562 -2.300781 1.101562 -2.699219 C 1.101562 -2.75 1.136719 -2.753906 1.199219 -2.753906 C 1.359375 -2.753906 1.683594 -2.628906 1.851562 -2.628906 C 1.976562 -2.628906 2.011719 -3.015625 2.011719 -3.070312 Z M 2.011719 -3.070312 "/></g></g></g></svg>